<?xml version="1.0" encoding="UTF-8"?>
<svg version="1.1" xmlns="http://www.w3.org/2000/svg" width="500" height="500">
<path d="M0 0 C165 0 330 0 500 0 C500 165 500 330 500 500 C335 500 170 500 0 500 C0 335 0 170 0 0 Z " fill="#2911C3" transform="translate(0,0)"/>
<path d="M0 0 C-1.14972999 10.44176677 -2.78108911 20.68108932 -4.91500854 30.96588135 C-5.38803166 33.25043893 -5.85155954 35.53675533 -6.31274414 37.82373047 C-7.62770243 44.33568458 -8.9621659 50.84248244 -10.34765625 57.33984375 C-14.52790878 76.97550683 -14.52790878 76.97550683 -10 96 C-8.67541292 98.00580329 -7.3440093 100.00715862 -6 102 C-6 102.66 -6 103.32 -6 104 C-9.76827943 105.5755766 -13.54027448 107.14185668 -17.31591797 108.69970703 C-18.59919394 109.23070661 -19.8814356 109.76421316 -21.16259766 110.30029297 C-23.00668359 111.07140415 -24.85486363 111.8327012 -26.703125 112.59375 C-27.81333008 113.05458984 -28.92353516 113.51542969 -30.06738281 113.99023438 C-33 115 -33 115 -37 115 C-38.703125 113.25 -38.703125 113.25 -40.25 111 C-40.77078125 110.2575 -41.2915625 109.515 -41.828125 108.75 C-42.40820312 107.88375 -42.40820312 107.88375 -43 107 C-43.53109375 107.34933594 -44.0621875 107.69867188 -44.609375 108.05859375 C-45.31578125 108.51363281 -46.0221875 108.96867187 -46.75 109.4375 C-47.44609375 109.88996094 -48.1421875 110.34242188 -48.859375 110.80859375 C-54.68170901 114.04912637 -61.5284127 113.45188141 -68 113 C-72.617929 111.35073964 -77.73106248 108.53787504 -80 104 C-83.87837901 105.23917486 -87.64345329 106.6430735 -91.40185547 108.20849609 C-103.66440777 113.28838295 -119.01720218 117.72368155 -132.0625 112.4375 C-139.43561957 108.36513745 -145.26851426 103.09382353 -148 95 C-148.8248261 91.68647447 -149.47464242 88.37334864 -150 85 C-150.05605191 86.87462511 -150.09367206 88.74979877 -150.125 90.625 C-150.14820313 91.66914063 -150.17140625 92.71328125 -150.1953125 93.7890625 C-149.91202427 99.89675684 -148.86468702 105.94719084 -148 112 C-159.88 112 -171.76 112 -184 112 C-184.33 110.02 -184.66 108.04 -185 106 C-185.33 106 -185.66 106 -186 106 C-186.33 107.98 -186.66 109.96 -187 112 C-210.43 112 -233.86 112 -258 112 C-258 111.34 -258 110.68 -258 110 C-259.19625 110.495 -260.3925 110.99 -261.625 111.5 C-269.07830958 113.96088737 -278.18318109 114.6956612 -285.5 111.4375 C-290.32815998 108.53022087 -294.21479949 104.35560153 -296 99 C-297.02264546 87.42517629 -294.60600131 76.76666109 -292.0625 65.5625 C-291.49881475 63.01878265 -290.93925572 60.47419761 -290.38145447 57.92918396 C-290.03631262 56.3610543 -289.68711055 54.79381035 -289.33302307 53.22767639 C-289.17293259 52.51260422 -289.0128421 51.79753204 -288.84790039 51.06079102 C-288.70800186 50.44349625 -288.56810333 49.82620148 -288.42396545 49.19020081 C-287.83483167 46.14674223 -287.43839979 43.06879852 -287 40 C-291.95 40 -296.9 40 -302 40 C-302.33837891 42.92359375 -302.33837891 42.92359375 -302.68359375 45.90625 C-304.16497932 57.54606396 -306.71092715 69.0126121 -309.0625 80.5 C-309.75376207 83.89333673 -310.44357195 87.28695734 -311.13121033 90.68103027 C-311.55624833 92.77729067 -311.98350375 94.87310311 -312.41334534 96.96838379 C-312.60702194 97.92047729 -312.80069855 98.8725708 -313.00024414 99.85351562 C-313.16964005 100.6809729 -313.33903595 101.50843018 -313.51356506 102.36096191 C-314.10286991 105.55809643 -314.54024029 108.78168206 -315 112 C-327.21 112 -339.42 112 -352 112 C-349.70015873 97.05103176 -349.70015873 97.05103176 -348.4140625 90.15625 C-348.20117836 89.00221176 -348.20117836 89.00221176 -347.98399353 87.82485962 C-347.53294567 85.3828741 -347.07908027 82.94142329 -346.625 80.5 C-346.3123103 78.81105521 -345.9997296 77.12209023 -345.68725586 75.43310547 C-343.49796252 63.61438733 -341.26990812 51.80352221 -339 40 C-344.94 40 -350.88 40 -357 40 C-357 29.77 -357 19.54 -357 9 C-354.69362549 8.9906543 -352.38725098 8.98130859 -350.01098633 8.97167969 C-342.38729557 8.93789939 -334.76387521 8.88234468 -327.14040089 8.81609726 C-322.51863505 8.77660253 -317.89706032 8.7444239 -313.27514648 8.72900391 C-308.8139782 8.71385037 -304.35333519 8.67942831 -299.89240074 8.63169098 C-298.19122574 8.61686367 -296.48997575 8.60895821 -294.78873634 8.60811615 C-292.40391792 8.60574871 -290.02055383 8.57868955 -287.63598633 8.54589844 C-286.93395584 8.5509288 -286.23192535 8.55595917 -285.50862122 8.56114197 C-280.72732995 8.45954615 -278.42937921 7.26842903 -275 4 C-269.88157886 0.74376866 -263.82729103 1.33859899 -258 2 C-253.14027657 3.64025202 -250.05622156 6.32747136 -247.5 10.75 C-245.64931676 15.13711071 -245.11755008 19.30774227 -246 24 C-246.90625 25.87890625 -246.90625 25.87890625 -248 27.625 C-250.29677199 31.50080273 -250.16764529 33.5888333 -250 38 C-249.42032471 37.75765625 -248.84064941 37.5153125 -248.2434082 37.265625 C-245.60346121 36.16795589 -242.95813404 35.08388605 -240.3125 34 C-239.40048828 33.6184375 -238.48847656 33.236875 -237.54882812 32.84375 C-236.21948242 32.30234375 -236.21948242 32.30234375 -234.86328125 31.75 C-234.05157471 31.41484375 -233.23986816 31.0796875 -232.40356445 30.734375 C-229.75324343 29.92460703 -227.75431532 29.69661448 -225 30 C-221 34.10810811 -221 34.10810811 -221 37 C-220.39671875 36.65066406 -219.7934375 36.30132812 -219.171875 35.94140625 C-218.37265625 35.48636719 -217.5734375 35.03132813 -216.75 34.5625 C-215.96109375 34.11003906 -215.1721875 33.65757812 -214.359375 33.19140625 C-208.13663485 30.04912852 -200.28060115 29.93675391 -193.578125 31.6015625 C-190.91314263 32.59341684 -188.42847775 33.72902593 -186.0234375 35.25 C-185.35570312 35.4975 -184.68796875 35.745 -184 36 C-182.03672219 35.12605932 -182.03672219 35.12605932 -180.125 33.625 C-174.08248552 29.94738339 -167.87473929 30.23434908 -161 31 C-154.72325179 32.71817275 -149.13211808 35.52996255 -145.63671875 41.21875 C-143.85953324 45.09624565 -142.76003202 48.80137653 -142 53 C-141.57589844 52.34773438 -141.15179688 51.69546875 -140.71484375 51.0234375 C-134.33588349 41.51808572 -127.06942719 34.42359483 -115.67578125 31.37890625 C-105.11687657 29.88370369 -92.57438366 29.63052583 -83.625 36.1875 C-80.52343195 39.51060863 -78.75392903 42.84215647 -77 47 C-75.515 45.700625 -75.515 45.700625 -74 44.375 C-72.66945784 43.24670025 -71.33599991 42.12183199 -70 41 C-69.38640625 40.4740625 -68.7728125 39.948125 -68.140625 39.40625 C-59.60981121 32.49699586 -50.86572131 30.24339271 -40 31 C-39.96261719 30.46375 -39.92523438 29.9275 -39.88671875 29.375 C-39.40754542 23.66250232 -38.54491782 18.06911006 -37.5 12.4375 C-37.36940186 11.72271484 -37.23880371 11.00792969 -37.10424805 10.27148438 C-36.12463421 5.12463421 -36.12463421 5.12463421 -35 4 C-32.93103157 3.62894628 -30.85161347 3.31586556 -28.76953125 3.02734375 C-27.49142578 2.85009766 -26.21332031 2.67285156 -24.89648438 2.49023438 C-24.22576904 2.39959717 -23.55505371 2.30895996 -22.86401367 2.21557617 C-20.83747666 1.94088551 -18.81229803 1.65748765 -16.78710938 1.37304688 C-11.14406348 0.60006568 -5.70539288 -0.11656937 0 0 Z " fill="#040406" transform="translate(434,105)"/>
<path d="M0 0 C-0.61997924 3.66753367 -1.24689884 7.33384928 -1.875 11 C-2.04902344 12.02996094 -2.22304688 13.05992187 -2.40234375 14.12109375 C-3.38287594 19.82270687 -4.50837319 25.409759 -6 31 C-5.16597656 30.95359375 -4.33195313 30.9071875 -3.47265625 30.859375 C5.61556607 30.56788562 11.85640464 31.48695176 18.875 37.4375 C24.83118063 44.61995311 25.77581962 50.85790931 25 60 C23.77602151 67.17244536 22.11544268 74.33592705 19.3828125 81.0859375 C16.35589944 88.91866306 17.33089253 98.16721361 19.5625 106.1328125 C20 108 20 108 20 112 C8.12 112 -3.76 112 -16 112 C-16.66 107.05 -17.32 102.1 -18 97 C-18.99 101.95 -19.98 106.9 -21 112 C-22.14476807 111.99476318 -23.28953613 111.98952637 -24.46899414 111.98413086 C-28.73868012 111.96595498 -33.00836271 111.95452216 -37.27807617 111.94506836 C-39.12183203 111.94005684 -40.96558396 111.93324585 -42.80932617 111.92456055 C-45.46794612 111.91235516 -48.12651327 111.90673975 -50.78515625 111.90234375 C-51.60210464 111.89718246 -52.41905304 111.89202118 -53.26075745 111.88670349 C-57.94115119 111.88625043 -62.36523417 112.26147203 -67 113 C-85.8643944 114.51853185 -85.8643944 114.51853185 -93.6015625 109.2890625 C-95 108 -95 108 -96 106 C-102.73398286 106.68782032 -108.60508504 109.61914847 -114.74414062 112.29296875 C-116.03288086 112.83244141 -116.03288086 112.83244141 -117.34765625 113.3828125 C-118.50793335 113.88385498 -118.50793335 113.88385498 -119.69165039 114.39501953 C-122.53669103 115.14065789 -124.22154401 114.9354702 -127 114 C-129.3125 110.9375 -129.3125 110.9375 -131 108 C-134.04193335 108.63096871 -135.60488744 109.36965344 -138.375 111.0625 C-144.77572406 114.33478028 -152.61809633 114.17174323 -159.46875 112.33984375 C-166.83379578 109.0680638 -171.0728106 102.7693272 -174.17089844 95.57104492 C-175.64487371 91.00024586 -175.59138398 86.51462639 -175.5 81.75 C-175.48718994 80.73583008 -175.47437988 79.72166016 -175.46118164 78.67675781 C-175.04763134 63.33735495 -169.57560327 50.49741818 -158.31640625 39.7890625 C-149.41767796 32.91618297 -140.95805039 30.82032164 -130.0625 30.8125 C-129.16853516 30.80025391 -128.27457031 30.78800781 -127.35351562 30.77539062 C-122.68432331 30.76499153 -119.30280428 31.0504108 -115 33 C-106.10614759 33.79265452 -96.88400439 32.67965061 -88 32 C-87.52820313 30.62714844 -87.52820313 30.62714844 -87.046875 29.2265625 C-86.61890625 28.03804688 -86.1909375 26.84953125 -85.75 25.625 C-85.33234375 24.44164062 -84.9146875 23.25828125 -84.484375 22.0390625 C-82.82332731 18.6382859 -82.36375216 18.332208 -79 17 C-77.1913441 16.51867383 -75.36722237 16.09361854 -73.53515625 15.7109375 C-71.96411133 15.38222656 -71.96411133 15.38222656 -70.36132812 15.046875 C-69.27271484 14.82515625 -68.18410156 14.6034375 -67.0625 14.375 C-65.97775391 14.14554687 -64.89300781 13.91609375 -63.77539062 13.6796875 C-59.10081979 12.71431823 -54.7908956 11.85747534 -50 12 C-51.22580645 27.4516129 -51.22580645 27.4516129 -54 33 C-49.71 33 -45.42 33 -41 33 C-40.9175 31.55625 -40.835 30.1125 -40.75 28.625 C-40.01567386 20.26245005 -37.92805207 12.15162479 -36 4 C-31.5163482 3.42716511 -27.0322983 2.85759377 -22.54785156 2.29101562 C-21.02299867 2.09789783 -19.4982575 1.90389564 -17.97363281 1.70898438 C-15.77958637 1.42864989 -13.58515508 1.1515197 -11.390625 0.875 C-10.7113092 0.78750488 -10.03199341 0.70000977 -9.33209229 0.60986328 C-6.17631041 0.21520443 -3.18989154 0 0 0 Z " fill="#050407" transform="translate(381,266)"/>
<path d="M0 0 C6.27 0 12.54 0 19 0 C22.23499041 13.97457567 24.84227988 27.98684972 27.25 42.125 C27.61678741 44.25918338 27.98397262 46.39329844 28.3515625 48.52734375 C29.23894701 53.68412237 30.12099889 58.84178606 31 64 C31.51296631 62.95956543 32.02593262 61.91913086 32.55444336 60.84716797 C36.36352156 53.15353285 40.23542828 45.54372971 44.5625 38.125 C45.05210205 37.27711914 45.5417041 36.42923828 46.04614258 35.55566406 C47.11065765 33.71282057 48.17704089 31.8710552 49.24511719 30.03027344 C51.19518088 26.66296813 53.13346776 23.28897864 55.0703125 19.9140625 C56.10309151 18.11637161 57.1361592 16.31884708 58.16940308 14.52142334 C58.84643383 13.34343326 59.52313234 12.16525216 60.19949341 10.98687744 C61.14571817 9.33928983 62.09428931 7.69305043 63.04296875 6.046875 C63.58977295 5.09651367 64.13657715 4.14615234 64.69995117 3.16699219 C66 1 66 1 67 0 C68.34267413 -0.08631874 69.68974322 -0.10706473 71.03515625 -0.09765625 C71.84404297 -0.09443359 72.65292969 -0.09121094 73.48632812 -0.08789062 C74.33646484 -0.07951172 75.18660156 -0.07113281 76.0625 -0.0625 C76.91650391 -0.05798828 77.77050781 -0.05347656 78.65039062 -0.04882812 C80.76695663 -0.03700373 82.88348685 -0.01906769 85 0 C85.16903541 7.15248948 84.67850928 14.0545535 83.79296875 21.1484375 C83.66772324 22.19203934 83.54247772 23.23564117 83.41343689 24.31086731 C83.00990887 27.66621891 82.59863506 31.02057292 82.1875 34.375 C81.63410082 38.96192624 81.08474481 43.5493346 80.53515625 48.13671875 C80.33330719 49.81448143 80.33330719 49.81448143 80.12738037 51.52613831 C78.62979673 64.00571376 77.30076593 76.49819416 76 89 C68.74 89 61.48 89 54 89 C54.61647544 82.83524557 55.26170172 76.92279025 56.41015625 70.875 C56.54191757 70.16142334 56.67367889 69.44784668 56.80943298 68.71264648 C57.22327656 66.47436274 57.64252186 64.23714003 58.0625 62 C58.48521123 59.73415231 58.90673638 57.46809678 59.32627869 55.20166016 C59.58577494 53.80121752 59.84722523 52.40113522 60.1108551 51.00146484 C60.77433711 47.52408352 60.77433711 47.52408352 61 44 C60.55684448 44.82685303 60.55684448 44.82685303 60.10473633 45.67041016 C54.1972236 56.66497921 48.16854043 67.56982122 41.8125 78.3125 C41.24829346 79.26656738 40.68408691 80.22063477 40.1027832 81.20361328 C36.14088282 87.85911718 36.14088282 87.85911718 35 89 C32.13732433 89.07325168 29.299281 89.09238205 26.4375 89.0625 C25.63119141 89.05798828 24.82488281 89.05347656 23.99414062 89.04882812 C21.99606244 89.03700518 19.99802217 89.01906914 18 89 C17.03919295 83.93214604 16.0789292 78.86418952 15.11914062 73.79614258 C14.79343888 72.07671414 14.46759587 70.35731245 14.14160156 68.63793945 C12.39605225 59.43096999 10.65162715 50.22440266 9 41 C8.84144531 42.20269531 8.68289062 43.40539062 8.51953125 44.64453125 C6.50207177 59.52459004 3.82760076 74.25452353 1 89 C-0.97969854 88.88372713 -2.95875213 88.7564632 -4.9375 88.625 C-6.03964844 88.55539062 -7.14179687 88.48578125 -8.27734375 88.4140625 C-12.61379204 87.93172932 -16.7638868 87.0231112 -21 86 C-14.37461839 57.23109539 -7.4765314 28.56002558 0 0 Z " fill="#FBFBFB" transform="translate(118,282)"/>
<path d="M0 0 C2 0.8125 2 0.8125 3.0859375 2.50390625 C4.16981406 5.24138937 4.41551268 7.62967752 4.625 10.5625 C4.69976562 11.54734375 4.77453125 12.5321875 4.8515625 13.546875 C4.92503906 14.66835937 4.92503906 14.66835937 5 15.8125 C5.27972656 15.30460938 5.55945313 14.79671875 5.84765625 14.2734375 C9.51405226 7.9780823 14.07410523 2.57783003 21 -0.1875 C26.59390643 -0.85752222 31.46352174 -0.94226125 36.5625 1.5625 C38.73252407 3.56559914 40.5186683 5.26131763 42 7.8125 C42 8.8025 42 9.7925 42 10.8125 C42.721875 10.07 43.44375 9.3275 44.1875 8.5625 C49.44746858 3.41941961 53.6932926 -0.45454704 61.25 -0.5625 C66.4769266 -0.45768195 70.89287187 0.43186859 75 3.8125 C78.22754097 7.91619478 78.575736 11.81333431 78.5625 16.875 C78.56443359 17.66084473 78.56636719 18.44668945 78.56835938 19.25634766 C78.38288489 26.37603881 76.44812732 32.47842601 74.14819336 39.16333008 C71.11471208 48.50265944 71.58120378 57.04058812 72 66.8125 C65.07 66.8125 58.14 66.8125 51 66.8125 C50.40700924 54.85385305 51.47068704 45.18514799 54.86572266 33.69506836 C56.38194737 28.52792229 57.35792669 24.2037707 57 18.8125 C55.27523089 17.85747842 55.27523089 17.85747842 53 17.8125 C41.98154396 25.72318639 39.85022242 43.57617447 37.68896484 56.06787109 C37.1033923 59.64579097 36.55546019 63.22978178 36 66.8125 C29.07 66.8125 22.14 66.8125 15 66.8125 C15.62189227 61.21546956 16.2491232 56.12364295 17.41015625 50.6875 C17.67763672 49.40359375 17.94511719 48.1196875 18.22070312 46.796875 C18.64072676 44.80194663 19.06353002 42.80770221 19.49145508 40.81445312 C21.08376209 33.36476375 22.393167 26.44161282 22 18.8125 C20.12515163 18.14683527 20.12515163 18.14683527 18 17.8125 C4.74681861 27.32760459 3.47334231 51.97244614 1 66.8125 C-5.93 66.8125 -12.86 66.8125 -20 66.8125 C-19.32763683 56.80365078 -17.30023512 47.31851335 -15.08398438 37.55078125 C-13.09128934 28.39306896 -11.3367 19.2194875 -14.5 10.125 C-14.7784375 9.29613281 -15.056875 8.46726563 -15.34375 7.61328125 C-15.5603125 7.01902344 -15.776875 6.42476562 -16 5.8125 C-15.15695313 5.46316406 -14.31390625 5.11382812 -13.4453125 4.75390625 C-12.34960938 4.29886719 -11.25390625 3.84382812 -10.125 3.375 C-9.03445312 2.92253906 -7.94390625 2.47007812 -6.8203125 2.00390625 C-1.69948013 -0.15932626 -1.69948013 -0.15932626 0 0 Z " fill="#FBFBFB" transform="translate(205,143.1875)"/>
<path d="M0 0 C4.39656173 -0.02465504 8.7930872 -0.04283842 13.18969727 -0.05493164 C14.68644918 -0.05997121 16.18319616 -0.06680287 17.67993164 -0.07543945 C19.82699807 -0.08752159 21.97399962 -0.09323191 24.12109375 -0.09765625 C26.06133423 -0.10551147 26.06133423 -0.10551147 28.04077148 -0.11352539 C31 0 31 0 32 1 C32.32102643 2.43100021 32.5882302 3.87415185 32.83203125 5.3203125 C32.98889404 6.23796387 33.14575684 7.15561523 33.30737305 8.10107422 C33.47406494 9.09896973 33.64075684 10.09686523 33.8125 11.125 C34.07317261 12.65084717 34.07317261 12.65084717 34.33911133 14.20751953 C35.08586545 18.57940108 35.8232215 22.95285639 36.56152344 27.32617188 C37.10031276 30.50966874 37.64378122 33.692342 38.1875 36.875 C38.35419189 37.87289551 38.52088379 38.87079102 38.69262695 39.89892578 C38.84948975 40.81657715 39.00635254 41.73422852 39.16796875 42.6796875 C39.30485107 43.49163574 39.4417334 44.30358398 39.58276367 45.14013672 C39.82695958 47.00535122 39.82695958 47.00535122 41 48 C41.5873291 46.93809448 41.5873291 46.93809448 42.18652344 45.85473633 C50.6814576 30.50508953 59.26084006 15.21261174 68 0 C78.23 0 88.46 0 99 0 C98.39500342 11.52835602 97.48071381 22.9526849 96.22265625 34.42578125 C96.04925406 36.03180679 95.8761185 37.63786114 95.70323181 39.24394226 C95.34361829 42.57608882 94.98114229 45.90790697 94.61645508 49.23950195 C94.15292808 53.47578535 93.69625533 57.71277433 93.24166203 61.9500246 C92.88647216 65.25428758 92.52787747 68.55817438 92.16827202 71.86195946 C91.99867769 73.4233158 91.83004491 74.98477694 91.66246223 76.54635048 C91.42689823 78.73612072 91.18677631 80.92534839 90.94555664 83.11450195 C90.81089493 84.35118118 90.67623322 85.58786041 90.53749084 86.86201477 C89.83606717 92.26207105 88.89522159 97.62867043 88 103 C75.79 103 63.58 103 51 103 C51.33 99.37 51.66 95.74 52 92 C50.02 95.63 48.04 99.26 46 103 C36.76 103 27.52 103 18 103 C17.01 99.04 16.02 95.08 15 91 C14.34 95.29 13.68 99.58 13 104 C11.38158203 103.81824219 11.38158203 103.81824219 9.73046875 103.6328125 C-1.50827404 102.37506533 -12.75227745 101.1744667 -24 100 C-20.77951788 85.15568426 -17.25412126 70.3894618 -13.6875 55.625 C-13.25771347 53.8423172 -13.25771347 53.8423172 -12.81924438 52.02362061 C-8.63310052 34.66042627 -4.40729693 17.30856736 0 0 Z M6 7 C4.11206157 14.3557552 2.22834943 21.71257672 0.34814453 29.0703125 C-0.28878383 31.56050104 -0.92676342 34.05042099 -1.56591797 36.54003906 C-8.82123618 64.64447568 -8.82123618 64.64447568 -15 93 C-12.64741656 93.50866669 -10.29338596 94.0070625 -7.9375 94.5 C-7.28072266 94.64308594 -6.62394531 94.78617187 -5.94726562 94.93359375 C-5.29306641 95.06894531 -4.63886719 95.20429688 -3.96484375 95.34375 C-3.3730835 95.46943359 -2.78132324 95.59511719 -2.17163086 95.72460938 C0.8898848 96.1128488 3.91817107 96.038867 7 96 C7.98251251 90.61129971 8.96096103 85.22188249 9.93579102 79.83178711 C10.26738038 78.00151064 10.60004362 76.17142837 10.93383789 74.34155273 C11.41581041 71.69826848 11.89380625 69.05428998 12.37109375 66.41015625 C12.51904892 65.60353043 12.66700409 64.7969046 12.81944275 63.96583557 C13.77269978 58.65659453 14.45370671 53.366804 15 48 C15.23710693 49.27641357 15.47421387 50.55282715 15.71850586 51.86791992 C16.59967224 56.6109852 17.48128744 61.35396696 18.36303711 66.09692383 C18.74434422 68.14833341 19.12553019 70.19976551 19.5065918 72.2512207 C20.05485573 75.20269631 20.60355761 78.15409021 21.15234375 81.10546875 C21.3221727 82.02023483 21.49200165 82.93500092 21.66697693 83.87748718 C22.41972151 87.92362246 23.17594465 91.9676225 24 96 C26.71378221 96.24478436 29.40546971 96.42160328 32.125 96.5625 C33.26582031 96.67561523 33.26582031 96.67561523 34.4296875 96.79101562 C36.87613548 96.88592093 38.67401128 96.78001684 41 96 C43.69223857 93.39769091 45.25693477 90.28684969 47 87 C47.58410645 85.98413818 48.16821289 84.96827637 48.77001953 83.92163086 C50.38440121 81.11014944 51.96769341 78.28430646 53.53173828 75.44458008 C54.49420348 73.69801881 55.46387958 71.9554376 56.43359375 70.21289062 C60.48157 62.89921574 64.32649065 55.5086326 68 48 C67.23106372 52.1878506 66.45968192 56.37524669 65.6875 60.5625 C65.4603833 61.79637451 65.2332666 63.03024902 64.99926758 64.30151367 C63.59088977 71.91816903 62.1176993 79.51097063 60.48046875 87.08203125 C59.83752913 90.49383653 59.83752913 90.49383653 60 96 C67.26 96 74.52 96 82 96 C82.20157715 94.13980225 82.4031543 92.27960449 82.61083984 90.36303711 C83.28385616 84.15635647 83.95858633 77.94986394 84.63443565 71.74349117 C85.04338188 67.98754466 85.45168002 64.23153026 85.85839844 60.4753418 C86.25231148 56.8376537 86.64805557 53.20016871 87.04497147 49.56280708 C87.1946752 48.18810403 87.34376351 46.81333379 87.49216843 45.43848991 C88.39895928 37.04247442 89.42037269 28.67709056 90.61099243 20.31739807 C91.1334555 15.86191159 91.1896286 11.47734193 91 7 C88.1558043 6.64447554 85.35584705 6.39116934 82.5 6.1875 C81.70851563 6.07857422 80.91703125 5.96964844 80.1015625 5.85742188 C77.28329372 5.70726821 75.59692005 5.85571502 73 7 C70.07640732 10.43370919 67.99532948 14.19639869 65.94140625 18.18301392 C64.49287829 20.9787837 62.91516931 23.70033753 61.359375 26.4375 C60.15347068 28.62346907 58.95040544 30.81100644 57.75 33 C56.45258111 35.35530667 55.15253546 37.70915484 53.8515625 40.0625 C53.52956879 40.64531738 53.20757507 41.22813477 52.87582397 41.82861328 C49.19441744 48.47808786 45.40726151 55.06677175 41.59277344 61.640625 C41.13161133 62.43984375 40.67044922 63.2390625 40.1953125 64.0625 C39.79328613 64.75472656 39.39125977 65.44695312 38.97705078 66.16015625 C37.86259915 68.13610101 37.86259915 68.13610101 37 71 C36.66790527 69.0511792 36.66790527 69.0511792 36.32910156 67.06298828 C35.49116667 62.15302905 34.64727557 57.24410782 33.80175781 52.33544922 C33.43950429 50.22764663 33.07877762 48.11958094 32.71972656 46.01123047 C30.48769108 32.91205014 27.99712419 19.9470365 25 7 C18.73 7 12.46 7 6 7 Z " fill="#050507" transform="translate(112,275)"/>
<path d="M0 0 C-0.63731827 6.33538912 -1.56194334 12.5377636 -2.7421875 18.79296875 C-2.91122589 19.70146072 -3.08026428 20.6099527 -3.25442505 21.54597473 C-3.61092977 23.45810567 -3.96901603 25.36994237 -4.32861328 27.28149414 C-4.87012212 30.16155654 -5.40617555 33.04259314 -5.94140625 35.92382812 C-7.4382435 43.94380152 -8.9588164 51.94590564 -10.73046875 59.91015625 C-12.88675539 69.803923 -13.33902539 78.74732176 -8.875 88.109375 C-8 90 -8 90 -8 92 C-10.4566947 93.00419637 -12.91518353 94.00350501 -15.375 95 C-16.07367188 95.28617187 -16.77234375 95.57234375 -17.4921875 95.8671875 C-22.7734375 98 -22.7734375 98 -25 98 C-27.82897804 94.21615279 -28.57916416 90.82021143 -29.1875 86.1875 C-29.42533203 84.44533203 -29.42533203 84.44533203 -29.66796875 82.66796875 C-29.77753906 81.78753906 -29.88710938 80.90710938 -30 80 C-30.44730469 80.74765625 -30.89460938 81.4953125 -31.35546875 82.265625 C-31.96003906 83.25046875 -32.56460938 84.2353125 -33.1875 85.25 C-33.77917969 86.22453125 -34.37085938 87.1990625 -34.98046875 88.203125 C-38.46326757 93.02649823 -42.21062209 95.66398971 -48 97 C-54.55893792 97.79138922 -58.68041672 96.96361107 -64 93 C-71.03350676 84.63582979 -70.57865149 74.60981301 -69.79296875 64.27734375 C-68.33607372 53.40666542 -63.20833047 42.47828164 -54.5078125 35.62109375 C-46.01499168 30.13118621 -38.10298227 27.89325703 -28 29 C-27.01 29.33 -26.02 29.66 -25 30 C-25.04125 29.07058594 -25.0825 28.14117187 -25.125 27.18359375 C-25.125 22.03165159 -24.0178883 17.09348169 -23 12.0625 C-22.71382813 10.6074707 -22.71382813 10.6074707 -22.421875 9.12304688 C-21.95378085 6.74746905 -21.47969098 4.37325835 -21 2 C-13.88670903 0.52839112 -7.26410451 -0.22686371 0 0 Z " fill="#FBFBFB" transform="translate(425,114)"/>
<path d="M0 0 C-0.47848216 2.87089297 -0.95950279 5.74102974 -1.453125 8.609375 C-1.78293792 10.65421509 -2.07580562 12.70618918 -2.296875 14.765625 C-3.53978671 25.12322256 -7.93653298 34.48374993 -12 44 C-11.40960938 43.07703125 -10.81921875 42.1540625 -10.2109375 41.203125 C-6.37075863 35.63961497 -1.80139912 31.30796137 5 30 C12.17747252 29.30294652 17.2000278 29.52918809 23 34 C27.45833312 39.9479409 26.78421989 46.89185764 26 54 C24.90606976 60.0445008 23.21988208 66.04771593 20.875 71.72265625 C19.57280259 76.60008314 19.79075499 81.35270153 19.875 86.375 C19.88402344 87.39722656 19.89304687 88.41945313 19.90234375 89.47265625 C19.92579437 91.9818724 19.96166164 94.49096716 20 97 C13.07 97 6.14 97 -1 97 C-1.53259705 84.66150168 -1.0146571 74.80373465 2.86572266 63.06958008 C4.48977979 58.13806255 5.33684486 54.20004245 5 49 C3.35 48.67 1.7 48.34 0 48 C-13.52140496 60.52130105 -15.05864367 79.80738179 -18 97 C-24.93 97 -31.86 97 -39 97 C-38.36767831 90.67678315 -37.68833791 84.7676876 -36.36328125 78.6171875 C-36.12331924 77.46941833 -36.12331924 77.46941833 -35.87850952 76.29846191 C-35.53710834 74.66653013 -35.19355785 73.03504667 -34.84799194 71.4039917 C-33.93112574 67.07386676 -33.03124526 62.74023181 -32.1328125 58.40625 C-31.86065163 57.09447281 -31.86065163 57.09447281 -31.58299255 55.75619507 C-29.57891904 46.04429812 -27.76340012 36.29905473 -25.99145508 26.54248047 C-24.54410686 18.63793618 -22.87717518 10.81381306 -21 3 C-18.9375 2.6875 -16.875 2.375 -14.8125 2.0625 C-11.61163942 1.57752112 -8.43214618 1.0893883 -5.26171875 0.43359375 C-3 0 -3 0 0 0 Z " fill="#FBFBFB" transform="translate(372,274)"/>
<path d="M0 0 C0.68578125 -0.00773437 1.3715625 -0.01546875 2.078125 -0.0234375 C6.46950854 -0.00667649 9.89080958 0.79904597 14 2.25 C16.11765328 2.52307938 18.24454111 2.73296941 20.375 2.875 C21.96441406 2.98714844 21.96441406 2.98714844 23.5859375 3.1015625 C24.78089844 3.17503906 24.78089844 3.17503906 26 3.25 C25.002029 8.78115018 23.99168352 14.30887496 22.9296875 19.828125 C18.46540322 40.08409707 18.46540322 40.08409707 23.125 59.61328125 C24 61.25 24 61.25 24 63.25 C18.39 65.23 12.78 67.21 7 69.25 C2.5 60.25 2.5 60.25 2.25 55.25 C2.19328125 54.30125 2.1365625 53.3525 2.078125 52.375 C2.05234375 51.67375 2.0265625 50.9725 2 50.25 C1.731875 50.81847656 1.46375 51.38695312 1.1875 51.97265625 C-2.34157726 58.9263315 -6.70041276 63.71434598 -13.4375 67.6875 C-19.09195781 68.92872245 -24.02753822 69.16886897 -29.25 66.375 C-34.02752702 62.90651538 -36.49903033 58.94117667 -38 53.25 C-39.76280944 38.97193211 -37.66350348 24.98436974 -29 13.25 C-24.76066582 8.06527439 -20.22652558 4.70569514 -14 2.25 C-13.09378906 1.89035156 -12.18757813 1.53070313 -11.25390625 1.16015625 C-7.45425295 0.09734806 -3.91007468 -0.04409859 0 0 Z " fill="#FBFBFB" transform="translate(251,303.75)"/>
<path d="M0 0 C3.31481132 2.05880859 4.56297167 3.58429722 6 7.2421875 C6.97656944 14.61840352 6.59937885 21.20550276 2 27.2421875 C-3.51119374 33.57476108 -10.20280287 36.48897031 -18 39.2421875 C-18.69738281 39.4896875 -19.39476562 39.7371875 -20.11328125 39.9921875 C-23.79938699 41.16912592 -27.14765073 41.43010698 -31 41.2421875 C-30.1395861 45.57448465 -30.1395861 45.57448465 -28 49.2421875 C-21.13516734 49.8048787 -16.03621579 48.5114771 -9.6015625 46.1171875 C-7 45.2421875 -7 45.2421875 -4 45.2421875 C-3.32739649 47.01077441 -2.66211605 48.78214766 -2 50.5546875 C-1.62875 51.54082031 -1.2575 52.52695313 -0.875 53.54296875 C0 56.2421875 0 56.2421875 0 59.2421875 C-2.89461219 60.2250932 -5.79058079 61.20362451 -8.6875 62.1796875 C-9.50412109 62.45748047 -10.32074219 62.73527344 -11.16210938 63.02148438 C-20.8417785 66.27416671 -30.83113846 68.62411984 -40.5 64.0546875 C-46.26871956 60.75036494 -49.28135687 56.95721092 -51.46484375 50.59765625 C-54.46687574 37.38433296 -50.83592835 23.56419384 -44 12.2421875 C-34.70141109 -1.94344387 -15.3186501 -7.30659297 0 0 Z " fill="#FBFBFB" transform="translate(344,145.7578125)"/>
<path d="M0 0 C21.78 0 43.56 0 66 0 C65.01 5.28 64.02 10.56 63 16 C55.74 16 48.48 16 41 16 C40.73960938 18.27519531 40.47921875 20.55039063 40.2109375 22.89453125 C39.11655968 31.91620485 37.41423547 40.78227577 35.625 49.6875 C35.31181715 51.26778456 34.99924137 52.84818955 34.68725586 54.42871094 C34.07490662 57.52953305 33.46037293 60.62990848 32.84423828 63.72998047 C31.72043782 69.39763079 30.63669875 75.07276332 29.5625 80.75 C28.7890625 84.83375 28.7890625 84.83375 28 89 C20.74 89 13.48 89 6 89 C6.57447993 79.57681421 8.36035176 70.54930169 10.26708984 61.32617188 C11.18610078 56.88003483 12.08637365 52.43010105 12.98828125 47.98046875 C13.1646109 47.11287933 13.34094055 46.24528992 13.52261353 45.35140991 C15.49984384 35.5931742 17.26965833 25.80526945 19 16 C12.73 16 6.46 16 0 16 C0 10.72 0 5.44 0 0 Z " fill="#FCFCFC" transform="translate(85,121)"/>
<path d="M0 0 C-0.31201674 2.04174058 -0.62463569 4.08338913 -0.9375 6.125 C-1.11152344 7.26195312 -1.28554688 8.39890625 -1.46484375 9.5703125 C-1.95581807 12.71684867 -2.47645322 15.8587193 -3 19 C1.29 19 5.58 19 10 19 C9.52312298 24.10939665 9.00753402 28.9623299 8 34 C3.38 34.33 -1.24 34.66 -6 35 C-6.84141157 39.18602254 -7.67338129 43.37355386 -8.5 47.5625 C-8.85771484 49.33463867 -8.85771484 49.33463867 -9.22265625 51.14257812 C-10.34048009 56.84347972 -11.34153388 62.18538563 -11 68 C-6.41464864 68.09170703 -2.58489331 67.76414889 2 67 C2 71.95 2 76.9 2 82 C-6.41928636 85.36771455 -18.36534033 87.20690148 -27.0625 83.6875 C-30.97759311 81.43840396 -32.56927602 80.29217193 -34 76 C-35.02886777 67.07935224 -32.55948307 58.47230515 -30.5 49.875 C-30.16175356 48.42731821 -29.82450621 46.97940261 -29.48828125 45.53125 C-28.67034688 42.01806478 -27.83896615 38.50823002 -27 35 C-30.3 35 -33.6 35 -37 35 C-37 29.72 -37 24.44 -37 19 C-32.38 19 -27.76 19 -23 19 C-22.731875 17.659375 -22.46375 16.31875 -22.1875 14.9375 C-21.32765964 10.6382982 -20.185923 6.82198495 -18 3 C-15.23801164 1.93315089 -13.35115569 1.41821561 -10.5 1.0625 C-9.48486328 0.89524414 -9.48486328 0.89524414 -8.44921875 0.72460938 C-5.60676011 0.27329198 -2.87995153 0 0 0 Z " fill="#FBFBFB" transform="translate(322,287)"/>
<path d="M0 0 C6.6 0 13.2 0 20 0 C19.40545628 8.73236087 17.87362846 17.02069853 16 25.5625 C14.22109562 33.69763109 12.56108517 41.67925198 12 50 C15.465 49.505 15.465 49.505 19 49 C19 53.62 19 58.24 19 63 C12.25851117 65.65238905 6.26288137 67.01342531 -1 66 C-5.42977671 63.8642148 -8.19613671 61.60987286 -10 57 C-11.32692646 47.30474862 -8.19950045 37.33171718 -6.125 27.9375 C-5.75557726 26.2287171 -5.38708074 24.51973368 -5.01953125 22.81054688 C-3.37789684 15.19997244 -1.68894462 7.60025078 0 0 Z " fill="#FBFBFB" transform="translate(155,145)"/>
<path d="M0 0 C2.91927604 1.3961755 4.72202996 2.72202996 7 5 C7.69356035 9.05915319 7.93346201 13.26147038 5.94921875 16.95703125 C3.44410213 19.99420803 1.50967927 21.82982681 -2.42578125 22.2734375 C-10.10563235 22.54363524 -10.10563235 22.54363524 -14.1875 20.0625 C-16.64127599 15.91646471 -16.77833069 12.70419649 -16 8 C-13.03435546 0.82001849 -7.28470853 -1.12072439 0 0 Z " fill="#FAFAFA" transform="translate(173,114)"/>
<path d="M0 0 C1.71697229 4.10809322 0.14973174 7.63519606 -1.1875 11.625 C-1.41945068 12.3370459 -1.65140137 13.0490918 -1.89038086 13.78271484 C-7.44735438 30.61960063 -7.44735438 30.61960063 -12 36 C-14.75 36.875 -14.75 36.875 -17 37 C-20.02425073 32.46362391 -19.53539459 28.32129985 -19 23 C-17.12144181 14.5658547 -14.76968575 7.76968575 -8.625 1.625 C-5.50153901 -0.30857109 -3.60914402 -0.33573433 0 0 Z " fill="#090909" transform="translate(253,319)"/>
<path d="M0 0 C0.97715769 3.73687283 0.98349232 6.07021288 -0.22265625 9.73046875 C-0.51092285 10.61186523 -0.79918945 11.49326172 -1.09619141 12.40136719 C-1.41507324 13.32079102 -1.73395508 14.24021484 -2.0625 15.1875 C-2.38395996 16.12625977 -2.70541992 17.06501953 -3.03662109 18.03222656 C-7.95764562 31.97795896 -7.95764562 31.97795896 -12 36 C-14.6171875 36.796875 -14.6171875 36.796875 -17 37 C-19.24246852 34.75753148 -18.24953472 30.10104795 -18.25097656 27.07641602 C-18.11976674 18.670041 -16.59522913 10.55441127 -11 4 C-7.27008036 0.98432029 -4.84609195 -0.57012846 0 0 Z " fill="#060606" transform="translate(395,158)"/>
<path d="M0 0 C3.96 0 7.92 0 12 0 C11.31640625 8.203125 11.31640625 8.203125 11 11 C10.95875 11.7321875 10.9175 12.464375 10.875 13.21875 C10 15 10 15 7.05859375 16.265625 C5.86363281 16.59046875 4.66867187 16.9153125 3.4375 17.25 C2.23996094 17.58515625 1.04242188 17.9203125 -0.19140625 18.265625 C-1.58166016 18.62914062 -1.58166016 18.62914062 -3 19 C-2.37574057 12.54931918 -1.33978367 6.3416427 0 0 Z " fill="#2911BF" transform="translate(321,329)"/>
<path d="M0 0 C2.85915079 2.73483988 3.9387999 4.05610614 4.203125 8.1328125 C4.32031916 18.11384813 3.17443142 27.2668308 1 37 C0.67 37 0.34 37 0 37 C0 35.35 0 33.7 0 32 C-2.97 32.495 -2.97 32.495 -6 33 C-4.26151105 21.95144522 -2.12014378 10.98030797 0 0 Z " fill="#2710B6" transform="translate(181,152)"/>
<path d="M0 0 C1.98 0 3.96 0 6 0 C5.29776886 7.08883852 4.18931498 14.05145146 2.9375 21.0625 C2.75123047 22.11888672 2.56496094 23.17527344 2.37304688 24.26367188 C1.91788796 26.8429057 1.46015627 29.4216539 1 32 C-3.44325106 26.2815091 -3.55147463 21.09564029 -3 14 C-2.16011025 9.29271094 -1.12487171 4.64679146 0 0 Z " fill="#2710B7" transform="translate(280,329)"/>
<path d="M0 0 C2.6875 0.5 2.6875 0.5 3.6875 1.5 C4.1875 3.6875 4.1875 3.6875 3.6875 6.5 C0.72388785 10.16714025 -2.52446421 12.69992346 -7.25 13.375 C-8.7659375 13.436875 -8.7659375 13.436875 -10.3125 13.5 C-10.06369056 8.39940638 -8.35281415 5.51975272 -5.0078125 1.8515625 C-3.3125 0.5 -3.3125 0.5 0 0 Z " fill="#070707" transform="translate(326.3125,158.5)"/>
<path d="M0 0 C0.66 0 1.32 0 2 0 C2 3.3 2 6.6 2 10 C-0.13262124 6.80106814 -0.59021548 4.77001757 -1 1 C-0.67 0.67 -0.34 0.34 0 0 Z " fill="#230FA3" transform="translate(346,182)"/>
</svg>
