<?xml version="1.0" encoding="UTF-8"?>
<svg version="1.1" xmlns="http://www.w3.org/2000/svg" width="500" height="500">
<path d="M0 0 C165 0 330 0 500 0 C500 165 500 330 500 500 C335 500 170 500 0 500 C0 335 0 170 0 0 Z " fill="#2911C3" transform="translate(0,0)"/>
<path d="M0 0 C-0.62050851 8.15491823 -2.02888247 16.09839799 -3.5625 24.125 C-4.366875 28.37375 -5.17125 32.6225 -6 37 C-3.36 26.11 -0.72 15.22 2 4 C6.95 4 11.9 4 17 4 C17.71614583 7.35286458 18.43229167 10.70572917 19.1484375 14.05859375 C20.08129106 18.37625081 21.04175704 22.68790669 22 27 C26.29 19.41 30.58 11.82 35 4 C39.95 4 44.9 4 50 4 C49.38436124 15.40551811 48.32803235 26.6657574 46.9375 38 C46.74893339 39.56505415 46.56078057 41.13015822 46.37304688 42.6953125 C45.9208547 46.46424464 45.46029371 50.23201425 45 54 C39.06 54 33.12 54 27 54 C27 52.68 27 51.36 27 50 C26.34 51.32 25.68 52.64 25 54 C20.38 54 15.76 54 11 54 C10.01 52.02 10.01 52.02 9 50 C8.67 51.65 8.34 53.3 8 55 C6.72125 54.835 5.4425 54.67 4.125 54.5 C-5.24883295 53.44505983 -5.24883295 53.44505983 -14.375 55.1875 C-15.24125 55.455625 -16.1075 55.72375 -17 56 C-19.375 54.625 -19.375 54.625 -21 53 C-21.85464844 53.48146484 -21.85464844 53.48146484 -22.7265625 53.97265625 C-26.44588764 55.65338222 -30.00503056 55.71067677 -34 55 C-36.44892991 53.5685481 -37.9942314 52.05719856 -40 50 C-40.53109375 50.27714844 -41.0621875 50.55429688 -41.609375 50.83984375 C-42.31578125 51.20207031 -43.0221875 51.56429687 -43.75 51.9375 C-44.44609375 52.29714844 -45.1421875 52.65679687 -45.859375 53.02734375 C-51.36541039 55.5291737 -57.04266465 55.48757953 -63 55 C-67.19279817 53.30503904 -69.46477402 50.71229518 -72 47 C-72.495 45.02 -72.495 45.02 -73 43 C-73 46.63 -73 50.26 -73 54 C-78.61 54 -84.22 54 -90 54 C-90.495 52.02 -90.495 52.02 -91 50 C-91.33 51.32 -91.66 52.64 -92 54 C-93.04454346 53.99476318 -94.08908691 53.98952637 -95.1652832 53.98413086 C-99.03978621 53.96603402 -102.91428548 53.95455082 -106.78881836 53.94506836 C-108.46590808 53.94003887 -110.14299342 53.93321452 -111.82006836 53.92456055 C-114.230317 53.91243441 -116.64050768 53.90675785 -119.05078125 53.90234375 C-119.80087967 53.89718246 -120.55097809 53.89202118 -121.32380676 53.88670349 C-124.48951232 53.88636215 -126.97337972 53.99112657 -130 55 C-135.01080129 55.59450185 -138.76229083 55.76737969 -143.125 53.0625 C-147.50385854 45.91036438 -144.28962997 36.60388785 -142.5 28.9375 C-142.26152344 27.88111328 -142.02304688 26.82472656 -141.77734375 25.73632812 C-141.1934398 23.15547268 -140.60085212 20.57695245 -140 18 C-142.97 18 -145.94 18 -149 18 C-149.16822266 19.79244141 -149.16822266 19.79244141 -149.33984375 21.62109375 C-150.06663178 28.16218598 -151.33598403 34.60010075 -152.5625 41.0625 C-152.79646484 42.30966797 -153.03042969 43.55683594 -153.27148438 44.84179688 C-153.8447073 47.89508636 -154.42194646 50.94762137 -155 54 C-160.94 54 -166.88 54 -173 54 C-168.80851064 29.08510638 -168.80851064 29.08510638 -166 18 C-168.97 18 -171.94 18 -175 18 C-175 13.38 -175 8.76 -175 4 C-173.86457764 3.98018066 -172.72915527 3.96036133 -171.55932617 3.93994141 C-167.34913856 3.86390316 -163.13929737 3.77518314 -158.92944336 3.68261719 C-157.10692176 3.64432005 -155.28432437 3.60946845 -153.46166992 3.578125 C-150.84266059 3.53249021 -148.22417326 3.47449378 -145.60546875 3.4140625 C-144.38188911 3.39673569 -144.38188911 3.39673569 -143.1335907 3.37905884 C-139.26635496 3.27802726 -137.28840215 3.1922681 -134 1 C-127.1738149 0.45823928 -127.1738149 0.45823928 -123.5625 2.125 C-121.3398261 4.79220868 -121.13089146 6.53137641 -121 10 C-121.499701 12.74588172 -122.21262121 15.31364883 -123 18 C-119.04 16.68 -115.08 15.36 -111 14 C-110.01 14.99 -110.01 14.99 -109 16 C-107.32943851 15.68676972 -105.66394675 15.34665557 -104 15 C-102.31437112 14.89891691 -100.62593546 14.83985315 -98.9375 14.8125 C-98.10089844 14.79832031 -97.26429688 14.78414062 -96.40234375 14.76953125 C-94 15 -94 15 -91.94140625 16.13671875 C-91.30074219 16.42160156 -90.66007812 16.70648438 -90 17 C-87.98342377 16.16632901 -87.98342377 16.16632901 -86 15 C-81.81865593 14.42403668 -78.08844988 14.59774678 -74.125 16.0625 C-71.19173405 18.73694836 -70.33460125 21.27716493 -69 25 C-68.63648438 24.52949219 -68.27296875 24.05898437 -67.8984375 23.57421875 C-64.65582487 19.55836772 -62.0474029 16.61897829 -57 15 C-50.84637567 14.34692477 -45.15428253 14.16732838 -40 18 C-38.625 20.6875 -38.625 20.6875 -38 23 C-37.48050781 22.59007812 -36.96101562 22.18015625 -36.42578125 21.7578125 C-30.46281871 17.15056973 -26.66969962 14.89493562 -19 15 C-18.86722656 14.07316406 -18.73445312 13.14632812 -18.59765625 12.19140625 C-18.42105469 10.99386719 -18.24445313 9.79632813 -18.0625 8.5625 C-17.88847656 7.36753906 -17.71445313 6.17257813 -17.53515625 4.94140625 C-17 2 -17 2 -16 1 C-10.70362275 0.19207805 -5.35452334 -0.14090851 0 0 Z " fill="#09090C" transform="translate(264,201)"/>
<path d="M0 0 C-0.96355353 10.55808656 -0.96355353 10.55808656 -2 15 C-0.14375 14.938125 -0.14375 14.938125 1.75 14.875 C5.02602655 14.89233347 7.33086588 14.92400679 10 17 C12.80739406 20.4089785 13.45272274 23.31490736 13.3046875 27.71484375 C12.95755049 30.31837135 12.26765024 32.67618708 11.5 35.1875 C9.59778513 41.5460774 9.7868698 47.39296387 10 54 C4.39 54 -1.22 54 -7 54 C-7.495 50.535 -7.495 50.535 -8 47 C-8.66 49.31 -9.32 51.62 -10 54 C-16.66525311 54.36882824 -23.33107921 54.70463987 -30 55 C-31.27359375 55.05671875 -32.5471875 55.1134375 -33.859375 55.171875 C-34.89578125 55.19765625 -35.9321875 55.2234375 -37 55.25 C-37.886875 55.27578125 -38.77375 55.3015625 -39.6875 55.328125 C-42.51888431 54.92637452 -43.79369942 53.75575077 -46 52 C-51.19469593 52.24161376 -56.12718515 54.27827209 -61 56 C-61.66 55.01 -62.32 54.02 -63 53 C-63.639375 53.33 -64.27875 53.66 -64.9375 54 C-70.01817784 55.65899685 -74.83835622 55.79886835 -79.875 53.9375 C-83.54230993 50.59377624 -84.75571853 47.21526485 -85.28515625 42.4140625 C-85.5390075 34.5336366 -84.16688534 28.28128352 -79.8125 21.6875 C-74.8232685 16.92001212 -70.5322612 14.77523126 -63.5625 14.6875 C-59.3749368 14.84388203 -55.23720379 15.24578114 -51.08203125 15.77734375 C-48.03919572 16.10275018 -45.057465 16.06505245 -42 16 C-41.79375 14.88625 -41.5875 13.7725 -41.375 12.625 C-40 9 -40 9 -37.5 7.6875 C-36.345 7.460625 -35.19 7.23375 -34 7 C-32.70449219 6.72736328 -32.70449219 6.72736328 -31.3828125 6.44921875 C-28.92633021 5.93774156 -26.46687355 5.45827295 -24 5 C-24.14107747 6.45880109 -24.28802415 7.91703551 -24.4375 9.375 C-24.51871094 10.18710938 -24.59992188 10.99921875 -24.68359375 11.8359375 C-25 14 -25 14 -26 16 C-23.69 16 -21.38 16 -19 16 C-18.86722656 15.00097656 -18.73445313 14.00195312 -18.59765625 12.97265625 C-18.42105469 11.68230469 -18.24445313 10.39195312 -18.0625 9.0625 C-17.88847656 7.77472656 -17.71445312 6.48695313 -17.53515625 5.16015625 C-17 2 -17 2 -16 1 C-10.70362275 0.19207805 -5.35452334 -0.14090851 0 0 Z " fill="#070709" transform="translate(398,201)"/>
<path d="M0 0 C3.3 0 6.6 0 10 0 C11.65 9.9 13.3 19.8 15 30 C16.876875 26.720625 18.75375 23.44125 20.6875 20.0625 C21.26846436 19.04808838 21.84942871 18.03367676 22.44799805 16.98852539 C25.67353781 11.34807277 28.85637335 5.68652316 32 0 C35.3 0 38.6 0 42 0 C40.5118444 14.68897117 38.78867497 29.34478976 37 44 C33.37 44 29.74 44 26 44 C27.485 34.1 27.485 34.1 29 24 C28.21753906 25.35996094 27.43507813 26.71992188 26.62890625 28.12109375 C25.60685355 29.89327687 24.58471363 31.6654097 23.5625 33.4375 C23.04623047 34.33533203 22.52996094 35.23316406 21.99804688 36.15820312 C21.50498047 37.01220703 21.01191406 37.86621094 20.50390625 38.74609375 C20.04830322 39.53685303 19.5927002 40.3276123 19.12329102 41.14233398 C18 43 18 43 17 44 C14.32941149 44.14115161 11.67567762 44.04247107 9 44 C7.38214367 38.79974752 6.35068122 33.63140509 5.46484375 28.2578125 C5.22413654 26.04080635 5.22413654 26.04080635 4 25 C3.79503906 26.20398438 3.59007812 27.40796875 3.37890625 28.6484375 C3.10693641 30.22398692 2.83479193 31.79950621 2.5625 33.375 C2.36043945 34.56609375 2.36043945 34.56609375 2.15429688 35.78125 C1.11328125 41.7734375 1.11328125 41.7734375 0 44 C-3.3 43.67 -6.6 43.34 -10 43 C-8.74118887 33.15332296 -6.51004669 23.73173628 -3.875 14.1875 C-3.49804801 12.8016089 -3.12174246 11.4155418 -2.74609375 10.02929688 C-1.83814028 6.68414467 -0.92157473 3.34142888 0 0 Z " fill="#F8F8F8" transform="translate(269,208)"/>
<path d="M0 0 C2.02404288 1.72418468 2.34130961 2.84107204 2.6875 5.4375 C3.615625 4.2309375 3.615625 4.2309375 4.5625 3 C6.6875 0.4375 6.6875 0.4375 8.6875 -0.5625 C14.875 -1.02083333 14.875 -1.02083333 18.125 0.8125 C19.6875 2.4375 19.6875 2.4375 19.6875 4.4375 C20.656875 3.591875 21.62625 2.74625 22.625 1.875 C26.47709849 -0.9000832 29.17525841 -0.88260211 33.76953125 -0.25 C35.6875 0.4375 35.6875 0.4375 37.6875 3.4375 C38.24456487 7.66463932 37.92841667 11.6023222 36.75 15.6875 C35.19056437 21.19139045 35.01282633 26.74428923 34.6875 32.4375 C31.3875 32.4375 28.0875 32.4375 24.6875 32.4375 C24.28014347 23.92827472 25.25657044 16.5984778 27.6875 8.4375 C26.3675 8.4375 25.0475 8.4375 23.6875 8.4375 C20.35539892 16.12696404 18.40179105 24.26165039 16.6875 32.4375 C13.3875 32.4375 10.0875 32.4375 6.6875 32.4375 C7.10865671 27.94516179 7.54673945 23.664719 8.75 19.3125 C9.69706634 15.39795914 9.85339099 12.41888383 9.6875 8.4375 C6.68205499 9.10074399 6.68205499 9.10074399 5.625 11.01171875 C2.55727236 17.92688814 1.07974958 25.02271627 -0.3125 32.4375 C-3.6125 32.4375 -6.9125 32.4375 -10.3125 32.4375 C-9.8900413 27.43840533 -9.43579503 22.62773843 -8.25 17.75 C-7.02354477 12.56959955 -6.66823244 7.57583613 -8.3125 2.4375 C-2.9664028 -0.72155744 -2.9664028 -0.72155744 0 0 Z " fill="#F7F7F7" transform="translate(152.3125,219.5625)"/>
<path d="M0 0 C2.97 0 5.94 0 9 0 C8.25226694 7.68984416 6.89761085 15.17016757 5.37304688 22.74023438 C3.92521033 30.30822979 3.11440952 37.45763807 5 45 C2.36 45.99 -0.28 46.98 -3 48 C-3.99 45.69 -4.98 43.38 -6 41 C-6.78375 41.969375 -7.5675 42.93875 -8.375 43.9375 C-10.72908002 46.84912529 -11.98435359 47.86458048 -15.8125 48.375 C-20.0592261 47.87538516 -21.34898555 46.25696061 -24 43 C-26.07864716 36.76405851 -25.424402 30.27840933 -23.1875 24.1484375 C-20.53798484 19.35490679 -16.16366313 15.72122104 -11 14 C-9.60560336 13.93334624 -8.20830125 13.91461801 -6.8125 13.9375 C-4.9253125 13.9684375 -4.9253125 13.9684375 -3 14 C-2.95101562 13.32453125 -2.90203125 12.6490625 -2.8515625 11.953125 C-2.77679688 11.06109375 -2.70203125 10.1690625 -2.625 9.25 C-2.55539063 8.36828125 -2.48578125 7.4865625 -2.4140625 6.578125 C-2 4 -2 4 0 0 Z " fill="#F7F7F7" transform="translate(251,205)"/>
<path d="M0 0 C1.23556641 0.01740234 1.23556641 0.01740234 2.49609375 0.03515625 C3.32238281 0.04417969 4.14867187 0.05320313 5 0.0625 C5.63808594 0.07410156 6.27617187 0.08570313 6.93359375 0.09765625 C6.41876456 5.95045125 5.48002183 11.42741995 3.93359375 17.09765625 C4.44921875 16.60265625 4.96484375 16.10765625 5.49609375 15.59765625 C8.84650125 13.53586702 11.05750929 13.68964736 14.93359375 14.09765625 C17.87109375 14.91015625 17.87109375 14.91015625 19.93359375 17.09765625 C20.92917178 23.47557799 19.75530267 28.98957339 17.93359375 35.09765625 C17.47486047 39.09014805 17.1838386 43.08715329 16.93359375 47.09765625 C13.63359375 47.09765625 10.33359375 47.09765625 6.93359375 47.09765625 C6.59365344 38.59914846 7.74184812 31.30365627 9.93359375 23.09765625 C4.85088773 25.71882034 3.67911828 28.03656057 1.78125 33.24609375 C0.42235548 37.81749006 -0.34147796 42.38562238 -1.06640625 47.09765625 C-4.36640625 47.09765625 -7.66640625 47.09765625 -11.06640625 47.09765625 C-11.27269234 41.46543514 -10.51346876 36.42017994 -9.3515625 30.91796875 C-9.08876747 29.63791458 -9.08876747 29.63791458 -8.82066345 28.33200073 C-8.45151625 26.54129167 -8.07903014 24.75126797 -7.70336914 22.96191406 C-7.1266571 20.21193143 -6.56156925 17.45974374 -5.99804688 14.70703125 C-5.63739657 12.96470331 -5.27609187 11.22251066 -4.9140625 9.48046875 C-4.74423355 8.65451202 -4.5744046 7.8285553 -4.39942932 6.97756958 C-2.95552462 0.13967508 -2.95552462 0.13967508 0 0 Z " fill="#F7F7F7" transform="translate(387.06640625,204.90234375)"/>
<path d="M0 0 C-0.14183696 1.75032844 -0.28863429 3.50025534 -0.4375 5.25 C-0.51871094 6.22453125 -0.59992188 7.1990625 -0.68359375 8.203125 C-0.95171959 10.57322504 -1.41730634 12.69788242 -2 15 C-2.25436428 20.2568617 -1.98256731 24.04358171 0 29 C-4.455 30.485 -4.455 30.485 -9 32 C-9.99 30.02 -10.98 28.04 -12 26 C-12.43570312 26.433125 -12.87140625 26.86625 -13.3203125 27.3125 C-16.22711192 30.03054621 -18.17830537 31.81922718 -22.125 32.6875 C-25.96025374 31.7703741 -27.50878235 29.98946118 -30 27 C-32.27832652 22.44334696 -31.59194645 16.29646694 -30.3515625 11.484375 C-28.16282217 5.98446341 -24.9671045 2.22688923 -20 -1 C-13.2463067 -3.2512311 -6.67978485 -1.94321014 0 0 Z " fill="#F5F5F5" transform="translate(347,221)"/>
<path d="M0 0 C3.125 1.5 3.125 1.5 5 4 C5.81943554 9.08050033 5.66744858 10.92803713 2.9375 15.3125 C-1.21263295 19.10943015 -4.79720323 20.87984745 -10.4375 21.1875 C-11.7059375 21.0946875 -11.7059375 21.0946875 -13 21 C-12.67 22.32 -12.34 23.64 -12 25 C-7.83861737 25.08159574 -4.0527516 24.98248524 0 24 C1.4606285 26.64738916 2 27.89448334 2 31 C-4.97397191 33.76980445 -11.75031631 35.80837604 -18.9375 32.75 C-21.81554591 30.30802165 -22.85172553 28.24011374 -23.30078125 24.484375 C-23.33113849 17.40101916 -23.15958962 11.32758416 -18.08984375 5.98828125 C-12.05676984 0.59026775 -8.15084725 -0.88290182 0 0 Z " fill="#F8F8F8" transform="translate(218,219)"/>
<path d="M0 0 C10.56 0 21.12 0 32 0 C32 6 32 6 31 8 C27.37 8 23.74 8 20 8 C19.88785156 9.54300781 19.77570313 11.08601562 19.66015625 12.67578125 C19.05922016 19.28607827 17.79496261 25.69677544 16.4375 32.1875 C16.20353516 33.33025391 15.96957031 34.47300781 15.72851562 35.65039062 C15.15767555 38.4346922 14.5795967 41.21750807 14 44 C10.37 44 6.74 44 3 44 C4.0468492 35.68030369 5.42415402 27.47135638 7.0625 19.25 C7.2368457 18.36860352 7.41119141 17.48720703 7.59082031 16.57910156 C7.75807617 15.7537793 7.92533203 14.92845703 8.09765625 14.078125 C8.24726807 13.33981445 8.39687988 12.60150391 8.55102539 11.84082031 C9 10 9 10 10 8 C6.7 8 3.4 8 0 8 C0 5.36 0 2.72 0 0 Z " fill="#F9F9F9" transform="translate(92,208)"/>
<path d="M0 0 C-0.33 2.97 -0.66 5.94 -1 9 C0.98 9 2.96 9 5 9 C4.67 11.64 4.34 14.28 4 17 C1.36 17 -1.28 17 -4 17 C-4.06058594 17.80824219 -4.12117188 18.61648437 -4.18359375 19.44921875 C-4.26738281 20.51785156 -4.35117187 21.58648437 -4.4375 22.6875 C-4.51871094 23.74324219 -4.59992188 24.79898438 -4.68359375 25.88671875 C-4.96451681 28.65086297 -5.40156852 31.28945741 -6 34 C-2.535 33.505 -2.535 33.505 1 33 C1 35.64 1 38.28 1 41 C-4.36916078 42.78972026 -10.58095841 43.15454258 -15.75 40.6875 C-18.97494492 33.75386843 -15.60313953 24.17521673 -14 17 C-15.32 17 -16.64 17 -18 17 C-18 14.36 -18 11.72 -18 9 C-15.69 9 -13.38 9 -11 9 C-10.7834375 7.576875 -10.7834375 7.576875 -10.5625 6.125 C-10 3 -10 3 -9 1 C-5.85554549 0.15014743 -3.29227921 0 0 0 Z " fill="#F4F4F4" transform="translate(370,211)"/>
<path d="M0 0 C3.3 0 6.6 0 10 0 C8.68 8.25 7.36 16.5 6 25 C6.99 25 7.98 25 9 25 C9 27.31 9 29.62 9 32 C5.40735548 33.19754817 2.77282526 33.33094958 -1 33 C-3.4375 31.4375 -3.4375 31.4375 -5 29 C-5.55258497 22.607017 -3.98981204 16.75125975 -2.5 10.5625 C-2.26152344 9.54478516 -2.02304688 8.52707031 -1.77734375 7.47851562 C-1.19178823 4.9840491 -0.59683629 2.49179152 0 0 Z " fill="#F6F6F6" transform="translate(127,220)"/>
<path d="M0 0 C0.99 0 1.98 0 3 0 C3.34933594 0.85464844 3.69867188 1.70929688 4.05859375 2.58984375 C4.51363281 3.69457031 4.96867188 4.79929687 5.4375 5.9375 C5.88996094 7.03964844 6.34242188 8.14179688 6.80859375 9.27734375 C7.74424608 11.86568916 7.74424608 11.86568916 9 13 C10.65 8.71 12.3 4.42 14 0 C14.99 0 15.98 0 17 0 C18.26582219 3.86723631 18.1118765 7.73151262 18.0625 11.75 C18.05798828 12.44738281 18.05347656 13.14476562 18.04882812 13.86328125 C18.0371002 15.57555803 18.01916653 17.28779033 18 19 C17.01 19 16.02 19 15 19 C14.67 16.03 14.34 13.06 14 10 C12.68 12.97 11.36 15.94 10 19 C9.01 19 8.02 19 7 19 C5.68 15.7 4.36 12.4 3 9 C2.67 12.3 2.34 15.6 2 19 C1.01 19 0.02 19 -1 19 C-0.67 12.73 -0.34 6.46 0 0 Z " fill="#E8E85F" transform="translate(128,273)"/>
<path d="M0 0 C0.66 0 1.32 0 2 0 C2 0.66 2 1.32 2 2 C2.99 1.34 3.98 0.68 5 0 C8.125 0.25 8.125 0.25 11 1 C12.54586876 4.09173752 12.29359521 6.59429552 12 10 C10.3125 12.4375 10.3125 12.4375 8 14 C5.25 14.25 5.25 14.25 3 14 C3 15.98 3 17.96 3 20 C2.01 20 1.02 20 0 20 C-0.19594676 16.85463232 -0.3803401 13.70869386 -0.5625 10.5625 C-0.61857422 9.66466797 -0.67464844 8.76683594 -0.73242188 7.84179688 C-0.78076172 6.98779297 -0.82910156 6.13378906 -0.87890625 5.25390625 C-0.9260376 4.46314697 -0.97316895 3.6723877 -1.02172852 2.85766602 C-1 1 -1 1 0 0 Z " fill="#D5D457" transform="translate(239,278)"/>
<path d="M0 0 C3.5 0.1875 3.5 0.1875 5.5 1.1875 C5.314375 2.05375 5.12875 2.92 4.9375 3.8125 C4.32126649 7.16776669 4.32126649 7.16776669 5.125 10.375 C5.5 13.1875 5.5 13.1875 4.34765625 14.8828125 C1.80522503 16.6781022 0.34925758 16.30882251 -2.6875 15.875 C-3.58855469 15.75511719 -4.48960937 15.63523437 -5.41796875 15.51171875 C-6.10503906 15.40472656 -6.79210937 15.29773438 -7.5 15.1875 C-5.73454158 0.30720758 -5.73454158 0.30720758 0 0 Z " fill="#181522" transform="translate(364.5,275.8125)"/>
<path d="M0 0 C0.99 0 1.98 0 3 0 C3.33 6.27 3.66 12.54 4 19 C2.68 18.67 1.36 18.34 0 18 C-0.66 18.66 -1.32 19.32 -2 20 C-4.5 19.8125 -4.5 19.8125 -7 19 C-9.32749345 15.50875983 -9.50299316 14.10777749 -9 10 C-7.3125 7.625 -7.3125 7.625 -5 6 C-2.25 5.75 -2.25 5.75 0 6 C0 4.02 0 2.04 0 0 Z " fill="#EAE95F" transform="translate(304,272)"/>
<path d="M0 0 C1.32 0 2.64 0 4 0 C4 1.32 4 2.64 4 4 C5.32 4 6.64 4 8 4 C8 5.65 8 7.3 8 9 C7.01 9 6.02 9 5 9 C5 10.98 5 12.96 5 15 C5.99 15 6.98 15 8 15 C8 16.65 8 18.3 8 20 C1.84765625 20.09765625 1.84765625 20.09765625 0 20 C-1 19 -1 19 -1.09765625 16.49609375 C-1.08605469 15.48675781 -1.07445312 14.47742188 -1.0625 13.4375 C-1.05347656 12.42558594 -1.04445312 11.41367187 -1.03515625 10.37109375 C-1.02355469 9.58863281 -1.01195312 8.80617188 -1 8 C-1.99 8 -2.98 8 -4 8 C-4 6.68 -4 5.36 -4 4 C-3.01 4 -2.02 4 -1 4 C-0.67 2.68 -0.34 1.36 0 0 Z " fill="#1D1B1D" transform="translate(176,273)"/>
<path d="M0 0 C1.65 0 3.3 0 5 0 C5 1.32 5 2.64 5 4 C6.32 4.33 7.64 4.66 9 5 C8.34 6.32 7.68 7.64 7 9 C6.34 8.67 5.68 8.34 5 8 C5 10.31 5 12.62 5 15 C6.32 15.33 7.64 15.66 9 16 C9 17.32 9 18.64 9 20 C2.9453125 20.1953125 2.9453125 20.1953125 1 20 C-1 18 -1 18 -1.1953125 15.8359375 C-1.17210937 15.02382813 -1.14890625 14.21171875 -1.125 13.375 C-1.10695313 12.55773437 -1.08890625 11.74046875 -1.0703125 10.8984375 C-1.04710937 10.27195312 -1.02390625 9.64546875 -1 9 C-1.66 9 -2.32 9 -3 9 C-3 7.35 -3 5.7 -3 4 C-2.01 4 -1.02 4 0 4 C0 2.68 0 1.36 0 0 Z " fill="#110E1C" transform="translate(377,272)"/>
<path d="M0 0 C1.65 0 3.3 0 5 0 C5 1.32 5 2.64 5 4 C6.32 4.33 7.64 4.66 9 5 C8.34 6.32 7.68 7.64 7 9 C6.34 8.67 5.68 8.34 5 8 C5 10.31 5 12.62 5 15 C6.32 15.33 7.64 15.66 9 16 C9 17.32 9 18.64 9 20 C2.9453125 20.1953125 2.9453125 20.1953125 1 20 C-1 18 -1 18 -1.1953125 15.8359375 C-1.17210937 15.02382813 -1.14890625 14.21171875 -1.125 13.375 C-1.10695313 12.55773437 -1.08890625 11.74046875 -1.0703125 10.8984375 C-1.04710937 10.27195312 -1.02390625 9.64546875 -1 9 C-1.66 9 -2.32 9 -3 9 C-3 7.35 -3 5.7 -3 4 C-2.01 4 -1.02 4 0 4 C0 2.68 0 1.36 0 0 Z " fill="#110E1C" transform="translate(327,272)"/>
<path d="M0 0 C1.81115956 1.81115956 1.38199448 4.61278227 1.5625 7.0625 C1.64628906 8.16722656 1.73007813 9.27195312 1.81640625 10.41015625 C1.87699219 11.26480469 1.93757812 12.11945313 2 13 C1.01 13 0.02 13 -1 13 C-3.33564933 13.31669821 -5.6693782 13.64820803 -8 14 C-10.19007834 11.62741513 -10.965678 10.23535087 -11.4375 7 C-11 4 -11 4 -9.4375 1.625 C-6.15988698 -0.56007535 -3.85797355 -0.36395977 0 0 Z " fill="#DCDB5A" transform="translate(165,278)"/>
<path d="M0 0 C0.99 0 1.98 0 3 0 C3.33 2.31 3.66 4.62 4 7 C4.33 6.67 4.66 6.34 5 6 C7.4375 5.8125 7.4375 5.8125 10 6 C12 8 12 8 12.1953125 10.8203125 C12.16050781 12.45613281 12.16050781 12.45613281 12.125 14.125 C12.10695312 15.22070312 12.08890625 16.31640625 12.0703125 17.4453125 C12.03550781 18.70988281 12.03550781 18.70988281 12 20 C10.68 20 9.36 20 8 20 C8 16.37 8 12.74 8 9 C6.02 9.99 6.02 9.99 4 11 C3.3006486 13.18541552 3.3006486 13.18541552 3.25 15.625 C3.19328125 16.44226563 3.1365625 17.25953125 3.078125 18.1015625 C3.05234375 18.72804688 3.0265625 19.35453125 3 20 C2.01 20 1.02 20 0 20 C0 13.4 0 6.8 0 0 Z " fill="#E8E75F" transform="translate(190,272)"/>
<path d="M0 0 C1.65 0 3.3 0 5 0 C5.33 1.65 5.66 3.3 6 5 C5.34 3.68 4.68 2.36 4 1 C3.01 1 2.02 1 1 1 C1.01160156 1.78503906 1.02320313 2.57007813 1.03515625 3.37890625 C1.08375507 9.03719775 1.01294749 14.42878878 0 20 C0.99 20 1.98 20 3 20 C3 16.37 3 12.74 3 9 C5 10 5 10 5.8515625 12.28515625 C6.10679687 13.20167969 6.36203125 14.11820312 6.625 15.0625 C6.88539063 15.98160156 7.14578125 16.90070313 7.4140625 17.84765625 C7.60742188 18.55792969 7.80078125 19.26820313 8 20 C8.99 20 9.98 20 11 20 C11.19335938 19.37351562 11.38671875 18.74703125 11.5859375 18.1015625 C11.84632813 17.28429687 12.10671875 16.46703125 12.375 15.625 C12.75785156 14.40683594 12.75785156 14.40683594 13.1484375 13.1640625 C14 11 14 11 16 9 C16 12.63 16 16.26 16 20 C16.99 20 17.98 20 19 20 C19 15.05 19 10.1 19 5 C19.33 5 19.66 5 20 5 C20 10.28 20 15.56 20 21 C18.35 21 16.7 21 15 21 C14.67 19.68 14.34 18.36 14 17 C13.34 18.32 12.68 19.64 12 21 C10.35 21 8.7 21 7 21 C6.67 20.34 6.34 19.68 6 19 C5.67 19.66 5.34 20.32 5 21 C3.02 21 1.04 21 -1 21 C-1.10808032 13.90272572 -0.93854006 7.03905044 0 0 Z " fill="#1B1A14" transform="translate(127,272)"/>
<path d="M0 0 C2 2 2 2 2 4.4375 C1 7 1 7 -2.0625 8.8125 C-3.031875 9.204375 -4.00125 9.59625 -5 10 C-2.69 10.33 -0.38 10.66 2 11 C1.67 11.99 1.34 12.98 1 14 C-5.34507042 14.35915493 -5.34507042 14.35915493 -7.9375 12.9375 C-9.63902633 9.8347167 -9.42519574 7.46230815 -9 4 C-6.44752825 0.31309637 -4.449425 -0.70254079 0 0 Z " fill="#D9D859" transform="translate(286,278)"/>
<path d="M0 0 C1 1 1 1 1.0625 4.0625 C1.041875 5.031875 1.02125 6.00125 1 7 C-1.64738916 8.4606285 -2.89448334 9 -6 9 C-5.67 9.66 -5.34 10.32 -5 11 C-3.02 11 -1.04 11 1 11 C1 11.66 1 12.32 1 13 C-1.82883747 14.41441874 -3.87376745 14.31900332 -7 14 C-8.9375 12.4375 -8.9375 12.4375 -10 10 C-9.87890756 6.54886548 -9.63213135 4.03137221 -7.8125 1.0625 C-5.16412068 -0.48999822 -3.00380186 -0.26120016 0 0 Z " fill="#E0DF5B" transform="translate(268,278)"/>
<path d="M0 0 C0.66 0.66 1.32 1.32 2 2 C1.8125 4.5 1.8125 4.5 1 7 C-2 9 -2 9 -5 9 C-4.67 9.66 -4.34 10.32 -4 11 C-2.02 11 -0.04 11 2 11 C2 11.66 2 12.32 2 13 C-0.79870027 14.39935013 -2.90498792 14.25265405 -6 14 C-7.875 12.9375 -7.875 12.9375 -9 11 C-9.504958 7.0324729 -9.61854451 4.89345318 -7.3125 1.5625 C-4.57791039 -0.28519568 -3.23581461 -0.5109181 0 0 Z " fill="#DFDE5B" transform="translate(350,277)"/>
<path d="M0 0 C2 2 2 2 2.3125 4.9375 C2 8 2 8 0.875 9.875 C-1.86916239 11.52149743 -3.8694571 11.39964378 -7 11 C-9.15502531 7.76746204 -9.46856135 6.74849077 -9 3 C-6.73157826 -0.65467947 -4.03373275 -0.4291205 0 0 Z " fill="#F2F2F2" transform="translate(137,205)"/>
<path d="M0 0 C1.32 0 2.64 0 4 0 C2.95518663 6.70880162 1.30199356 12.0564116 -2 18 C-2.99 18 -3.98 18 -5 18 C-5.37876606 11.81348769 -4.92296816 7.50867077 -2 2 C-1.34 1.34 -0.68 0.68 0 0 Z " fill="#090909" transform="translate(332,227)"/>
<path d="M0 0 C1.2065625 0.0309375 1.2065625 0.0309375 2.4375 0.0625 C-0.36633174 13.1895304 -0.36633174 13.1895304 -4.5625 18.0625 C-5.2225 18.0625 -5.8825 18.0625 -6.5625 18.0625 C-7.11947798 6.46910653 -7.11947798 6.46910653 -3.5625 1.0625 C-2.5625 0.0625 -2.5625 0.0625 0 0 Z " fill="#0A0A0A" transform="translate(243.5625,226.9375)"/>
<path d="M0 0 C0.99 0 1.98 0 3 0 C3 1.32 3 2.64 3 4 C8.28 4 13.56 4 19 4 C19 4.33 19 4.66 19 5 C14.05 5 9.1 5 4 5 C3.90847656 6.010625 3.81695312 7.02125 3.72265625 8.0625 C2.87795358 14.82012137 1.07044441 21.39914551 -0.5625 28 C-0.89559326 29.36057654 -1.228279 30.72125291 -1.56054688 32.08203125 C-2.36970436 35.38902271 -3.182967 38.69494713 -4 42 C-4.33 42 -4.66 42 -5 42 C-4.39371194 33.15485677 -2.6661747 24.5512532 -0.9375 15.875 C-0.65257132 14.42716661 -0.36806298 12.97925043 -0.08398438 11.53125 C0.60583869 8.01986662 1.30132575 4.50963432 2 1 C1.34 0.67 0.68 0.34 0 0 Z " fill="#1C0A91" transform="translate(262,200)"/>
<path d="M0 0 C2.97 0.495 2.97 0.495 6 1 C6.06058594 2.18078125 6.12117188 3.3615625 6.18359375 4.578125 C6.26802582 6.1354277 6.35267249 7.69271879 6.4375 9.25 C6.47681641 10.02730469 6.51613281 10.80460937 6.55664062 11.60546875 C6.61948242 12.73662109 6.61948242 12.73662109 6.68359375 13.890625 C6.72025146 14.58188477 6.75690918 15.27314453 6.79467773 15.98535156 C7.00675524 18.06628329 7.44508677 19.98572422 8 22 C-0.69565217 23.39130435 -0.69565217 23.39130435 -5 23 C-7.11297113 21.40899798 -7.89953477 20.49146502 -8.43359375 17.87890625 C-8.44409733 11.65028537 -8.44409733 11.65028537 -6.25 8.4375 C-4 7 -4 7 0 7 C0 4.69 0 2.38 0 0 Z M2 2 C2 3.98 2 5.96 2 8 C1.2575 7.9175 0.515 7.835 -0.25 7.75 C-3.09257364 7.77804432 -3.09257364 7.77804432 -5.3125 9.625 C-7.49094235 12.6909559 -7.53839012 14.30818203 -7 18 C-5.62073227 20.34261608 -5.62073227 20.34261608 -4 22 C-2.824375 21.7525 -2.824375 21.7525 -1.625 21.5 C1.04213508 20.99197427 3.28002519 21 6 21 C5.67 14.73 5.34 8.46 5 2 C4.01 2 3.02 2 2 2 Z " fill="#18161A" transform="translate(302,270)"/>
<path d="M0 0 C3.4375 0.4375 3.4375 0.4375 6.4375 2.4375 C6.18188677 4.7806213 5.84479228 7.11593403 5.4375 9.4375 C4.4475 9.9325 4.4475 9.9325 3.4375 10.4375 C4.18 11.118125 4.18 11.118125 4.9375 11.8125 C6.4375 13.4375 6.4375 13.4375 6.4375 15.4375 C2.68054254 16.68981915 -0.63444791 17.01034093 -4.5625 16.4375 C-7.45730534 14.17593333 -7.53668644 12.64032084 -8 9 C-7.31303152 3.40611384 -5.77261428 0.70891754 0 0 Z M-5 3.5 C-7.02353784 7.30425115 -6.64756003 9.32977274 -5.5625 13.4375 C-3.67874325 15.76233785 -3.67874325 15.76233785 -0.5625 15.625 C2.36136603 15.63829609 2.36136603 15.63829609 4.4375 14.4375 C4.4375 13.7775 4.4375 13.1175 4.4375 12.4375 C2.4575 12.4375 0.4775 12.4375 -1.5625 12.4375 C-1.8925 11.7775 -2.2225 11.1175 -2.5625 10.4375 C-1.386875 10.2209375 -1.386875 10.2209375 -0.1875 10 C2.40171018 9.55951075 2.40171018 9.55951075 4.4375 8.4375 C4.48004356 6.43795254 4.47830783 4.43708364 4.4375 2.4375 C3.33674505 1.13426169 3.33674505 1.13426169 0.625 1.0625 C-2.68267741 1.15415577 -2.68267741 1.15415577 -5 3.5 Z " fill="#0D0C12" transform="translate(264.5625,276.5625)"/>
<path d="M0 0 C0.66 0.33 1.32 0.66 2 1 C2.125 4.375 2.125 4.375 2 8 C1.34 8.66 0.68 9.32 0 10 C0.7425 10.680625 0.7425 10.680625 1.5 11.375 C3 13 3 13 3 15 C0.67313547 16.16343227 -0.84721413 16.19895988 -3.4375 16.25 C-4.21996094 16.27578125 -5.00242187 16.3015625 -5.80859375 16.328125 C-8 16 -8 16 -9.7578125 14.76171875 C-12.06511542 11.48941178 -11.60731636 7.82333256 -11 4 C-8.17911567 -0.6262503 -5.13262119 -0.4752427 0 0 Z M-8.3125 2.5625 C-10.61854451 5.89345318 -10.504958 8.0324729 -10 12 C-9.01951062 14.06402685 -9.01951062 14.06402685 -7 15 C-3.90498792 15.25265405 -1.79870027 15.39935013 1 14 C1 13.34 1 12.68 1 12 C-0.98 12 -2.96 12 -5 12 C-5.33 11.34 -5.66 10.68 -6 10 C-5.21625 9.87625 -4.4325 9.7525 -3.625 9.625 C-0.85942178 9.20882007 -0.85942178 9.20882007 1 7 C0.71016731 3.69316534 0.71016731 3.69316534 -1 1 C-4.20957777 0.56627327 -5.59999199 0.72972432 -8.3125 2.5625 Z " fill="#141312" transform="translate(351,276)"/>
<path d="M0 0 C0.66 0 1.32 0 2 0 C2 1.32 2 2.64 2 4 C2.99 4 3.98 4 5 4 C5 4.66 5 5.32 5 6 C4.01 6 3.02 6 2 6 C2 8.97 2 11.94 2 15 C3.32 15 4.64 15 6 15 C6 15.99 6 16.98 6 18 C4.00045254 18.04254356 1.99958364 18.04080783 0 18 C-1 17 -1 17 -1.09765625 14.49609375 C-1.08605469 13.48675781 -1.07445312 12.47742188 -1.0625 11.4375 C-1.05347656 10.42558594 -1.04445313 9.41367187 -1.03515625 8.37109375 C-1.02355469 7.58863281 -1.01195312 6.80617188 -1 6 C-1.99 6 -2.98 6 -4 6 C-4 5.34 -4 4.68 -4 4 C-3.01 4 -2.02 4 -1 4 C-0.67 2.68 -0.34 1.36 0 0 Z " fill="#E4E35D" transform="translate(379,273)"/>
<path d="M0 0 C0.66 0 1.32 0 2 0 C2 1.32 2 2.64 2 4 C2.99 4 3.98 4 5 4 C5 4.66 5 5.32 5 6 C4.01 6 3.02 6 2 6 C2 8.97 2 11.94 2 15 C3.32 15 4.64 15 6 15 C6 15.99 6 16.98 6 18 C4.00045254 18.04254356 1.99958364 18.04080783 0 18 C-1 17 -1 17 -1.09765625 14.49609375 C-1.08605469 13.48675781 -1.07445312 12.47742188 -1.0625 11.4375 C-1.05347656 10.42558594 -1.04445313 9.41367187 -1.03515625 8.37109375 C-1.02355469 7.58863281 -1.01195312 6.80617188 -1 6 C-1.99 6 -2.98 6 -4 6 C-4 5.34 -4 4.68 -4 4 C-3.01 4 -2.02 4 -1 4 C-0.67 2.68 -0.34 1.36 0 0 Z " fill="#E4E35D" transform="translate(329,273)"/>
<path d="M0 0 C1.2065625 0.0309375 1.2065625 0.0309375 2.4375 0.0625 C2.7675 1.0525 3.0975 2.0425 3.4375 3.0625 C1.7875 3.0625 0.1375 3.0625 -1.5625 3.0625 C0.07162443 4.77090281 1.30656094 5.99703047 3.4375 7.0625 C3.4375 9.0425 3.4375 11.0225 3.4375 13.0625 C0.72870665 14.41689668 -1.57183268 14.12751451 -4.5625 14.0625 C-4.8925 13.0725 -5.2225 12.0825 -5.5625 11.0625 C-3.5825 11.0625 -1.6025 11.0625 0.4375 11.0625 C-0.408125 10.340625 -1.25375 9.61875 -2.125 8.875 C-4.5625 6.0625 -4.5625 6.0625 -4.4375 3.3125 C-3.17946306 0.07754788 -3.17946306 0.07754788 0 0 Z " fill="#D8D858" transform="translate(364.5625,276.9375)"/>
<path d="M0 0 C0 2.31 0 4.62 0 7 C1.65 7 3.3 7 5 7 C5 7.33 5 7.66 5 8 C2.69 8.66 0.38 9.32 -2 10 C-2 7.36 -2 4.72 -2 2 C-2.99 2 -3.98 2 -5 2 C-5 8.6 -5 15.2 -5 22 C-4.01 22 -3.02 22 -2 22 C-2 19.03 -2 16.06 -2 13 C-1.34 12.67 -0.68 12.34 0 12 C0 15.63 0 19.26 0 23 C-1.98 23 -3.96 23 -6 23 C-6 15.74 -6 8.48 -6 1 C-4 0 -4 0 0 0 Z " fill="#141122" transform="translate(195,270)"/>
<path d="M0 0 C0.99 0 1.98 0 3 0 C3.33 6.27 3.66 12.54 4 19 C2.68 18.67 1.36 18.34 0 18 C-2.21771064 18.85790183 -2.21771064 18.85790183 -4 20 C-4 19.34 -4 18.68 -4 18 C-3.525625 17.608125 -3.05125 17.21625 -2.5625 16.8125 C-0.25334174 14.13387641 -0.32445657 11.43923968 0 8 C-1.32 7.67 -2.64 7.34 -4 7 C-2.68 6.67 -1.36 6.34 0 6 C0 4.02 0 2.04 0 0 Z " fill="#F0EF62" transform="translate(304,272)"/>
<path d="M0 0 C0.78375 0.04125 1.5675 0.0825 2.375 0.125 C2.705 1.115 3.035 2.105 3.375 3.125 C2.055 3.125 0.735 3.125 -0.625 3.125 C-0.625 3.785 -0.625 4.445 -0.625 5.125 C1.83826712 6.7696674 1.83826712 6.7696674 4.375 8.125 C4.045 9.775 3.715 11.425 3.375 13.125 C0 13.75 0 13.75 -3.625 14.125 C-4.285 13.465 -4.945 12.805 -5.625 12.125 C-2.625 11.125 -2.625 11.125 0.375 11.125 C0.705 10.465 1.035 9.805 1.375 9.125 C0.570625 8.898125 -0.23375 8.67125 -1.0625 8.4375 C-3.625 7.125 -3.625 7.125 -4.5625 4.625 C-4.583125 3.8 -4.60375 2.975 -4.625 2.125 C-2.625 0.125 -2.625 0.125 0 0 Z " fill="#DDDC5A" transform="translate(226.625,277.875)"/>
<path d="M0 0 C0.99 0 1.98 0 3 0 C3 0.99 3 1.98 3 3 C3.99 3 4.98 3 6 3 C6 3.66 6 4.32 6 5 C5.01 5 4.02 5 3 5 C3.33 7.97 3.66 10.94 4 14 C4.99 14.33 5.98 14.66 7 15 C7 15.66 7 16.32 7 17 C5.00045254 17.04254356 2.99958364 17.04080783 1 17 C0 16 0 16 -0.09765625 13.49609375 C-0.08605469 12.48675781 -0.07445312 11.47742188 -0.0625 10.4375 C-0.05347656 9.42558594 -0.04445312 8.41367187 -0.03515625 7.37109375 C-0.02355469 6.58863281 -0.01195312 5.80617188 0 5 C-0.66 5 -1.32 5 -2 5 C-2 4.34 -2 3.68 -2 3 C-1.34 3 -0.68 3 0 3 C0 2.01 0 1.02 0 0 Z " fill="#EAE95F" transform="translate(176,275)"/>
<path d="M0 0 C0.66 0 1.32 0 2 0 C2 0.99 2 1.98 2 3 C2.66 3 3.32 3 4 3 C3.67 5.97 3.34 8.94 3 12 C4.32 12 5.64 12 7 12 C7 12.66 7 13.32 7 14 C5.68 14 4.36 14 3 14 C3 15.98 3 17.96 3 20 C2.01 20 1.02 20 0 20 C-0.19594676 16.85463232 -0.3803401 13.70869386 -0.5625 10.5625 C-0.61857422 9.66466797 -0.67464844 8.76683594 -0.73242188 7.84179688 C-0.78076172 6.98779297 -0.82910156 6.13378906 -0.87890625 5.25390625 C-0.9260376 4.46314697 -0.97316895 3.6723877 -1.02172852 2.85766602 C-1 1 -1 1 0 0 Z " fill="#DFDE5B" transform="translate(239,278)"/>
<path d="M0 0 C2.31 0 4.62 0 7 0 C6.51171875 6.0546875 6.51171875 6.0546875 6 8 C3 10 3 10 -1 10 C-0.67 6.7 -0.34 3.4 0 0 Z " fill="#250FB3" transform="translate(369,231)"/>
<path d="M0 0 C2 2 2 2 2.265625 4.6796875 C2.26046875 5.73414063 2.2553125 6.78859375 2.25 7.875 C2.25773438 9.44894531 2.25773438 9.44894531 2.265625 11.0546875 C2.0075764 13.91599111 1.4774449 15.57276909 0 18 C-0.99 17.67 -1.98 17.34 -3 17 C-2.54775239 11.08507728 -1.8417395 5.64800112 0 0 Z " fill="#240EAD" transform="translate(140,223)"/>
<path d="M0 0 C0.9075 0.00257813 1.815 0.00515625 2.75 0.0078125 C4.11125 0.00394531 4.11125 0.00394531 5.5 0 C7.75 0.1328125 7.75 0.1328125 8.75 1.1328125 C8.9594361 3.10791123 9.11803822 5.08852932 9.25 7.0703125 C9.42735084 11.25448665 9.42735084 11.25448665 10.75 15.1328125 C7.875 15.7578125 7.875 15.7578125 4.75 16.1328125 C4.09 15.4728125 3.43 14.8128125 2.75 14.1328125 C3.74 14.1328125 4.73 14.1328125 5.75 14.1328125 C7.06157516 11.50966218 6.64649988 9.90247814 6.3125 7.0078125 C6.21066406 6.09773438 6.10882813 5.18765625 6.00390625 4.25 C5.92011719 3.55132812 5.83632812 2.85265625 5.75 2.1328125 C0.78448675 1.77674437 0.78448675 1.77674437 -3.6875 3.6328125 C-4.203125 4.1278125 -4.71875 4.6228125 -5.25 5.1328125 C-2.84771705 0.16809441 -2.84771705 0.16809441 0 0 Z " fill="#1E1C22" transform="translate(159.25,276.8671875)"/>
<path d="M0 0 C1.32 0.33 2.64 0.66 4 1 C4 4.96 4 8.92 4 13 C2.68 13 1.36 13 0 13 C0 8.71 0 4.42 0 0 Z " fill="#C7C651" transform="translate(198,279)"/>
<path d="M0 0 C5.75 -0.125 5.75 -0.125 8 1 C7.814375 1.969375 7.62875 2.93875 7.4375 3.9375 C7.293125 4.948125 7.14875 5.95875 7 7 C7.33 7.33 7.66 7.66 8 8 C8.25 10.9375 8.25 10.9375 8 14 C4.5647952 16.29013653 3.014669 16.17842973 -1 16 C-1 15.67 -1 15.34 -1 15 C1.31 14.34 3.62 13.68 6 13 C5.81171228 10.55519921 5.81171228 10.55519921 5 8 C3.03241727 6.63979849 3.03241727 6.63979849 1 6 C1.33 5.01 1.66 4.02 2 3 C3.32 3.33 4.64 3.66 6 4 C5.67 3.34 5.34 2.68 5 2 C2.47266765 1.34444881 2.47266765 1.34444881 0 1 C0 0.67 0 0.34 0 0 Z " fill="#16131C" transform="translate(224,277)"/>
<path d="M0 0 C1.32 0 2.64 0 4 0 C3.01 5.61 2.02 11.22 1 17 C-1.32613583 13.51079626 -1.24247293 12.05047454 -1.1875 7.9375 C-1.18105469 6.87402344 -1.17460937 5.81054688 -1.16796875 4.71484375 C-1 2 -1 2 0 0 Z " fill="#230EAB" transform="translate(349,231)"/>
<path d="M0 0 C1.99954746 -0.04254356 4.00041636 -0.04080783 6 0 C7 1 7 1 7.0625 4.0625 C7.041875 5.031875 7.02125 6.00125 7 7 C5.02 7.66 3.04 8.32 1 9 C0.45627049 5.94152152 0 3.11227195 0 0 Z " fill="#D6D657" transform="translate(262,278)"/>
<path d="M0 0 C2.5 0.125 2.5 0.125 3.5 1.125 C3.73427778 3.14094582 3.91336124 5.163474 4.0625 7.1875 C4.14628906 8.29222656 4.23007813 9.39695312 4.31640625 10.53515625 C4.37699219 11.38980469 4.43757812 12.24445313 4.5 13.125 C3.51 13.125 2.52 13.125 1.5 13.125 C0.29727181 10.71954362 0.39928528 9.17503047 0.4375 6.5 C0.44652344 5.68273437 0.45554688 4.86546875 0.46484375 4.0234375 C0.47644531 3.39695312 0.48804688 2.77046875 0.5 2.125 C-0.82 1.795 -2.14 1.465 -3.5 1.125 C-2.5 0.125 -2.5 0.125 0 0 Z " fill="#ECEB60" transform="translate(162.5,277.875)"/>
<path d="M0 0 C1.32 0 2.64 0 4 0 C4.25 6.625 4.25 6.625 2 10 C1.01 9.67 0.02 9.34 -1 9 C-1.09765625 2.84765625 -1.09765625 2.84765625 -1 1 C-0.67 0.67 -0.34 0.34 0 0 Z " fill="#271F50" transform="translate(300,280)"/>
<path d="M0 0 C0.99 0 1.98 0 3 0 C3.25 6.625 3.25 6.625 1 10 C0.01 9.67 -0.98 9.34 -2 9 C-2.125 5.625 -2.125 5.625 -2 2 C-1.34 1.34 -0.68 0.68 0 0 Z " fill="#1D1450" transform="translate(160,280)"/>
<path d="M0 0 C0.66 0.33 1.32 0.66 2 1 C1.67 2.65 1.34 4.3 1 6 C2.65 6.99 4.3 7.98 6 9 C5.67 9.99 5.34 10.98 5 12 C3.35 12 1.7 12 0 12 C0.33 12.66 0.66 13.32 1 14 C-0.32 13.67 -1.64 13.34 -3 13 C-2.67 12.13375 -2.34 11.2675 -2 10.375 C-1.01156495 7.03903172 -0.91982101 4.44769655 -1 1 C-0.67 0.67 -0.34 0.34 0 0 Z " fill="#1E1B24" transform="translate(222,278)"/>
<path d="M0 0 C1.65 0 3.3 0 5 0 C5 1.65 5 3.3 5 5 C4.67 3.68 4.34 2.36 4 1 C3.01 1 2.02 1 1 1 C0.9175 1.639375 0.835 2.27875 0.75 2.9375 C-0.29520372 7.20541517 -2.14091826 11.03107667 -4 15 C-6.83374881 11.79663178 -7.5205537 9.21912747 -8 5 C-6.68 6.65 -5.36 8.3 -4 10 C-2.68 6.7 -1.36 3.4 0 0 Z " fill="#1B1916" transform="translate(141,272)"/>
<path d="M0 0 C0.99 0.33 1.98 0.66 3 1 C3 3.31 3 5.62 3 8 C1.35 8.33 -0.3 8.66 -2 9 C-2.125 5.625 -2.125 5.625 -2 2 C-1.34 1.34 -0.68 0.68 0 0 Z " fill="#1F1E13" transform="translate(245,280)"/>
<path d="M0 0 C0 0.33 0 0.66 0 1 C-1.7015625 1.433125 -1.7015625 1.433125 -3.4375 1.875 C-4.613125 2.24625 -5.78875 2.6175 -7 3 C-8.50662097 6.01324195 -8.17770373 8.68286377 -8 12 C-5.4345406 14.5654594 -3.52313332 14.54046087 0 15 C0 15.33 0 15.66 0 16 C-1.27875 16.061875 -2.5575 16.12375 -3.875 16.1875 C-4.95394531 16.23970703 -4.95394531 16.23970703 -6.0546875 16.29296875 C-6.69664062 16.19628906 -7.33859375 16.09960938 -8 16 C-10.68086851 11.97869724 -10.68211086 8.72361772 -10 4 C-7.29698633 -0.26244464 -4.85478777 -0.44134434 0 0 Z " fill="#110F13" transform="translate(286,277)"/>
<path d="M0 0 C1.2065625 0.0309375 1.2065625 0.0309375 2.4375 0.0625 C2.7675 1.0525 3.0975 2.0425 3.4375 3.0625 C2.1175 3.0625 0.7975 3.0625 -0.5625 3.0625 C-0.5625 4.3825 -0.5625 5.7025 -0.5625 7.0625 C-1.8825 6.7325 -3.2025 6.4025 -4.5625 6.0625 C-3.48963568 0.08511307 -3.48963568 0.08511307 0 0 Z " fill="#E7E75E" transform="translate(226.5625,277.9375)"/>
<path d="M0 0 C2.375 -0.125 2.375 -0.125 5 0 C5.66 0.66 6.32 1.32 7 2 C6.625 4.625 6.625 4.625 6 7 C4.68 7.33 3.36 7.66 2 8 C2.66 6.02 3.32 4.04 4 2 C2.68 2 1.36 2 0 2 C0 1.34 0 0.68 0 0 Z " fill="#E5E45D" transform="translate(345,277)"/>
<path d="M0 0 C0.99 0.33 1.98 0.66 3 1 C2.67 3.31 2.34 5.62 2 8 C0.68 8.33 -0.64 8.66 -2 9 C-1.67 9.99 -1.34 10.98 -1 12 C-2.65 11.67 -4.3 11.34 -6 11 C-6 10.34 -6 9.68 -6 9 C-3.69 8.34 -1.38 7.68 1 7 C0.67 4.69 0.34 2.38 0 0 Z " fill="#272523" transform="translate(268,278)"/>
<path d="M0 0 C1.32 0.33 2.64 0.66 4 1 C3.6875 3.375 3.6875 3.375 3 6 C2.01 6.66 1.02 7.32 0 8 C-0.99 7.67 -1.98 7.34 -3 7 C-2.34 7 -1.68 7 -1 7 C-0.67 4.69 -0.34 2.38 0 0 Z " fill="#E1E05C" transform="translate(284,279)"/>
<path d="M0 0 C-0.33 4.62 -0.66 9.24 -1 14 C-1.33 14 -1.66 14 -2 14 C-3.10228696 9.59085217 -3.07654536 5.51617599 -3 1 C-1 0 -1 0 0 0 Z " fill="#220DA6" transform="translate(314,229)"/>
<path d="M0 0 C1.32 0 2.64 0 4 0 C3.42655063 2.86724686 3.1385485 3.8614515 1 6 C0.01 6 -0.98 6 -2 6 C-1.125 1.125 -1.125 1.125 0 0 Z " fill="#101010" transform="translate(209,227)"/>
<path d="M0 0 C2.64 0.33 5.28 0.66 8 1 C8.33 2.32 8.66 3.64 9 5 C7.68 5.33 6.36 5.66 5 6 C5 5.34 5 4.68 5 4 C5.66 4 6.32 4 7 4 C7 3.34 7 2.68 7 2 C5.02 2.33 3.04 2.66 1 3 C0.67 2.01 0.34 1.02 0 0 Z " fill="#1C1927" transform="translate(345,286)"/>
<path d="M0 0 C0.66 0.33 1.32 0.66 2 1 C1.34 3.97 0.68 6.94 0 10 C-0.33 10 -0.66 10 -1 10 C-1.33 8.35 -1.66 6.7 -2 5 C-2.99 5.495 -2.99 5.495 -4 6 C-2.84826645 3.53199953 -1.95216435 1.95216435 0 0 Z " fill="#C2C14F" transform="translate(299,278)"/>
<path d="M0 0 C0.66 0.33 1.32 0.66 2 1 C1.67 1.99 1.34 2.98 1 4 C0.01 4.33 -0.98 4.66 -2 5 C-2.33 6.65 -2.66 8.3 -3 10 C-3.33 10 -3.66 10 -4 10 C-4.25 7.25 -4.25 7.25 -4 4 C-2 1.625 -2 1.625 0 0 Z " fill="#BEBD4D" transform="translate(158,278)"/>
<path d="M0 0 C0.99 0 1.98 0 3 0 C2.67 1.32 2.34 2.64 2 4 C0.68 4.33 -0.64 4.66 -2 5 C-1.34 3.35 -0.68 1.7 0 0 Z " fill="#2C2A27" transform="translate(346,279)"/>
<path d="M0 0 C0.99 0.33 1.98 0.66 3 1 C2.34 2.32 1.68 3.64 1 5 C0.01 5 -0.98 5 -2 5 C-1.125 1.125 -1.125 1.125 0 0 Z " fill="#282528" transform="translate(282,280)"/>
<path d="M0 0 C0.99 0 1.98 0 3 0 C3 1.65 3 3.3 3 5 C2.01 5.33 1.02 5.66 0 6 C0 4.02 0 2.04 0 0 Z " fill="#210DA4" transform="translate(244,282)"/>
<path d="M0 0 C0.99 0 1.98 0 3 0 C3 1.32 3 2.64 3 4 C1.68 4.33 0.36 4.66 -1 5 C-0.67 3.35 -0.34 1.7 0 0 Z " fill="#282526" transform="translate(263,280)"/>
</svg>
