<?xml version="1.0" encoding="UTF-8"?>
<svg version="1.1" xmlns="http://www.w3.org/2000/svg" width="412" height="412">
<path d="M0 0 C0.89895996 0.18804199 1.79791992 0.37608398 2.72412109 0.56982422 C55.19741459 11.62748221 102.65120527 43.04531939 132.28320312 87.94433594 C134.62161406 91.62685787 136.82812457 95.37688326 138.97070312 99.17626953 C139.64395271 100.36914771 140.32466958 101.55784991 141.01367188 102.74169922 C151.91737673 121.49373355 158.5072235 141.86523057 163 163 C163.17789062 163.77682129 163.35578125 164.55364258 163.5390625 165.35400391 C168.93680203 189.4457005 168.47665186 218.97775444 163 243 C162.81195801 243.89895996 162.62391602 244.79791992 162.43017578 245.72412109 C151.37251779 298.19741459 119.95468061 345.65120527 75.05566406 375.28320312 C71.37314213 377.62161406 67.62311674 379.82812457 63.82373047 381.97070312 C62.63085229 382.64395271 61.44215009 383.32466958 60.25830078 384.01367188 C41.50626645 394.91737673 21.13476943 401.5072235 0 406 C-0.77682129 406.17789062 -1.55364258 406.35578125 -2.35400391 406.5390625 C-26.4457005 411.93680203 -55.97775444 411.47665186 -80 406 C-80.89895996 405.81195801 -81.79791992 405.62391602 -82.72412109 405.43017578 C-135.19741459 394.37251779 -182.65120527 362.95468061 -212.28320312 318.05566406 C-214.62161406 314.37314213 -216.82812457 310.62311674 -218.97070312 306.82373047 C-219.64395271 305.63085229 -220.32466958 304.44215009 -221.01367188 303.25830078 C-231.91737673 284.50626645 -238.5072235 264.13476943 -243 243 C-243.17789063 242.22317871 -243.35578125 241.44635742 -243.5390625 240.64599609 C-248.93680203 216.5542995 -248.47665186 187.02224556 -243 163 C-242.81195801 162.10104004 -242.62391602 161.20208008 -242.43017578 160.27587891 C-231.37251779 107.80258541 -199.95468061 60.34879473 -155.05566406 30.71679688 C-151.37314213 28.37838594 -147.62311674 26.17187543 -143.82373047 24.02929688 C-142.63085229 23.35604729 -141.44215009 22.67533042 -140.25830078 21.98632812 C-121.50626645 11.08262327 -101.13476943 4.4927765 -80 0 C-78.83476807 -0.26683594 -78.83476807 -0.26683594 -77.64599609 -0.5390625 C-53.5542995 -5.93680203 -24.02224556 -5.47665186 0 0 Z " fill="#2911C3" transform="translate(246,3)"/>
<path d="M0 0 C0.89895996 0.18804199 1.79791992 0.37608398 2.72412109 0.56982422 C57.19311082 12.04803379 104.37133622 44.96247251 134.75 91.5 C138.06044875 96.59885209 137.3168517 102.10093634 136.35742188 107.85131836 C136.06831921 109.1823935 135.77179841 110.51187423 135.46875 111.83984375 C135.14922592 113.33127025 134.83023328 114.82281069 134.51171875 116.31445312 C134.0116488 118.61239362 133.50643135 120.90888575 132.99072266 123.20336914 C131.13142333 131.53588502 129.67611861 139.63124827 129.59375 148.19140625 C129.57592468 149.21487404 129.57592468 149.21487404 129.55773926 150.25901794 C129.65829529 157.82088966 132.85019542 162.84684149 137 169 C137 169.66 137 170.32 137 171 C133.23172057 172.5755766 129.45972552 174.14185668 125.68408203 175.69970703 C124.40080606 176.23070661 123.1185644 176.76421316 121.83740234 177.30029297 C119.99331641 178.07140415 118.14513637 178.8327012 116.296875 179.59375 C115.18666992 180.05458984 114.07646484 180.51542969 112.93261719 180.99023438 C110 182 110 182 106 182 C104.296875 180.25 104.296875 180.25 102.75 178 C102.22921875 177.2575 101.7084375 176.515 101.171875 175.75 C100.78515625 175.1725 100.3984375 174.595 100 174 C99.46890625 174.34933594 98.9378125 174.69867188 98.390625 175.05859375 C97.33101563 175.74115234 97.33101563 175.74115234 96.25 176.4375 C95.55390625 176.88996094 94.8578125 177.34242188 94.140625 177.80859375 C88.31484602 181.05104373 81.47511983 180.44460873 75 180 C70.18932289 178.33812972 66.69700872 175.43293667 63 172 C63 171.34 63 170.68 63 170 C62.02160156 170.47050781 61.04320312 170.94101563 60.03515625 171.42578125 C45.21218229 178.49190978 29.86392958 184.17874628 13.171875 180.3515625 C5.61759119 177.26117367 -0.92572157 171.70379523 -4.2578125 164.19921875 C-5.60132576 160.21817682 -6.35452055 156.14465751 -7 152 C-7.05605191 153.87462511 -7.09367206 155.74979877 -7.125 157.625 C-7.14820313 158.66914063 -7.17140625 159.71328125 -7.1953125 160.7890625 C-6.91202427 166.89675684 -5.86468702 172.94719084 -5 179 C-16.88 179 -28.76 179 -41 179 C-41.33 177.02 -41.66 175.04 -42 173 C-42.33 173 -42.66 173 -43 173 C-43.33 174.98 -43.66 176.96 -44 179 C-67.43 179 -90.86 179 -115 179 C-115 178.34 -115 177.68 -115 177 C-116.794375 177.7425 -116.794375 177.7425 -118.625 178.5 C-126.07830958 180.96088737 -135.18318109 181.6956612 -142.5 178.4375 C-147.32815998 175.53022087 -151.21479949 171.35560153 -153 166 C-154.02264546 154.42517629 -151.60600131 143.76666109 -149.0625 132.5625 C-148.49881475 130.01878265 -147.93925572 127.47419761 -147.38145447 124.92918396 C-147.03631262 123.3610543 -146.68711055 121.79381035 -146.33302307 120.22767639 C-146.17293259 119.51260422 -146.0128421 118.79753204 -145.84790039 118.06079102 C-145.70800186 117.44349625 -145.56810333 116.82620148 -145.42396545 116.19020081 C-144.83483167 113.14674223 -144.43839979 110.06879852 -144 107 C-148.95 107 -153.9 107 -159 107 C-159.33837891 109.92359375 -159.33837891 109.92359375 -159.68359375 112.90625 C-161.16497932 124.54606396 -163.71092715 136.0126121 -166.0625 147.5 C-166.75376207 150.89333673 -167.44357195 154.28695734 -168.13121033 157.68103027 C-168.55624833 159.77729067 -168.98350375 161.87310311 -169.41334534 163.96838379 C-169.60702194 164.92047729 -169.80069855 165.8725708 -170.00024414 166.85351562 C-170.16964005 167.6809729 -170.33903595 168.50843018 -170.51356506 169.36096191 C-171.10286991 172.55809643 -171.54024029 175.78168206 -172 179 C-184.21 179 -196.42 179 -209 179 C-206.70015873 164.05103176 -206.70015873 164.05103176 -205.4140625 157.15625 C-205.27213974 156.38689117 -205.13021698 155.61753235 -204.98399353 154.82485962 C-204.53294567 152.3828741 -204.07908027 149.94142329 -203.625 147.5 C-203.3123103 145.81105521 -202.9997296 144.12209023 -202.68725586 142.43310547 C-200.49796252 130.61438733 -198.26990812 118.80352221 -196 107 C-201.94 107 -207.88 107 -214 107 C-215.00666094 94.13711027 -213.4171782 87.92300365 -205 78 C-204.28070313 77.07832031 -203.56140625 76.15664062 -202.8203125 75.20703125 C-186.45582282 54.43671743 -166.87915372 37.03088499 -143.82373047 24.02929688 C-142.63085229 23.35604729 -141.44215009 22.67533042 -140.25830078 21.98632812 C-121.50626645 11.08262327 -101.13476943 4.4927765 -80 0 C-78.83476807 -0.26683594 -78.83476807 -0.26683594 -77.64599609 -0.5390625 C-53.5542995 -5.93680203 -24.02224556 -5.47665186 0 0 Z " fill="#040406" transform="translate(246,3)"/>
<path d="M0 0 C0.89895996 0.18804199 1.79791992 0.37608398 2.72412109 0.56982422 C47.08108694 9.91713454 88.92736994 33.8899228 118 69 C117.67 69.66 117.34 70.32 117 71 C114.03 71.33 111.06 71.66 108 72 C106.35 80.58 104.7 89.16 103 98 C99.37 98.33 95.74 98.66 92 99 C82.39184336 101.35731335 75.81472547 105.97478108 69 113 C68 114 67 115 66 116 C65.69707031 115.32453125 65.39414062 114.6490625 65.08203125 113.953125 C61.7873903 106.93807413 59.13322907 102.97678038 51.6875 100.25 C40.48875954 97.20340693 27.61247779 97.7503717 17.41796875 103.44140625 C12.04084767 106.91597774 8.17742218 110.77767694 4.47265625 115.984375 C3.10746666 117.85291035 1.68000044 119.41528316 0 121 C-0.12955078 120.1646875 -0.12955078 120.1646875 -0.26171875 119.3125 C-1.62426087 111.91227124 -4.08404697 106.36921184 -10 101.5625 C-16.70661619 98.06947073 -24.61053969 98.20942455 -32 99 C-34.75959297 100.20079586 -37.22605741 101.6257037 -39.81640625 103.1484375 C-42 104 -42 104 -44.02734375 103.4765625 C-45.875 102.375 -45.875 102.375 -49 100 C-57.98683991 96.93457368 -66.7458439 99.10002871 -75 103 C-76.485 103.495 -76.485 103.495 -78 104 C-82 99.25 -82 99.25 -82 97 C-89.17148325 99.11322704 -96.19052864 101.33639517 -103.07421875 104.265625 C-105 105 -105 105 -107 105 C-108.08878163 100.55414166 -108.38835621 98.67649146 -106.0625 94.625 C-105.50755859 93.76068359 -105.50755859 93.76068359 -104.94140625 92.87890625 C-102.82798036 88.66082386 -103.34407249 84.19677497 -104.66015625 79.7890625 C-106.42379951 75.68152972 -108.58506075 72.63059042 -112.75 70.62890625 C-118.54904903 69.0079915 -124.98551092 68.7230606 -130.58203125 71.09375 C-132.92549434 72.54627487 -135.04905315 74.04905315 -137 76 C-139.05556661 76.09413687 -141.11440181 76.11742998 -143.17211914 76.11352539 C-144.13794167 76.11374443 -144.13794167 76.11374443 -145.12327576 76.1139679 C-147.26060303 76.11326885 -149.39784413 76.10547691 -151.53515625 76.09765625 C-153.01346285 76.09579204 -154.49177007 76.09436815 -155.97007751 76.09336853 C-159.86798802 76.08954359 -163.76586149 76.07971352 -167.66375732 76.06866455 C-171.63846333 76.05844992 -175.61317529 76.0538708 -179.58789062 76.04882812 C-187.391944 76.03809122 -195.19596682 76.02101509 -203 76 C-202.07071162 74.74320917 -201.13889224 73.48828962 -200.20605469 72.23413086 C-199.68742859 71.5350914 -199.16880249 70.83605194 -198.63446045 70.11582947 C-196.03364171 66.74903713 -193.16826151 63.65416781 -190.25 60.5625 C-189.63366699 59.90854248 -189.01733398 59.25458496 -188.38232422 58.58081055 C-175.2896837 44.81119968 -160.36604469 33.35796344 -143.82373047 24.02929688 C-142.63085229 23.35604729 -141.44215009 22.67533042 -140.25830078 21.98632812 C-121.50626645 11.08262327 -101.13476943 4.4927765 -80 0 C-78.83476807 -0.26683594 -78.83476807 -0.26683594 -77.64599609 -0.5390625 C-53.5542995 -5.93680203 -24.02224556 -5.47665186 0 0 Z " fill="#2911C3" transform="translate(246,3)"/>
<path d="M0 0 C-0.61997924 3.66753367 -1.24689884 7.33384928 -1.875 11 C-2.04902344 12.02996094 -2.22304688 13.05992187 -2.40234375 14.12109375 C-3.38287594 19.82270687 -4.50837319 25.409759 -6 31 C-5.16597656 30.95359375 -4.33195313 30.9071875 -3.47265625 30.859375 C5.61556607 30.56788562 11.85640464 31.48695176 18.875 37.4375 C24.83118063 44.61995311 25.77581962 50.85790931 25 60 C23.77602151 67.17244536 22.11544268 74.33592705 19.3828125 81.0859375 C16.35589944 88.91866306 17.33089253 98.16721361 19.5625 106.1328125 C20 108 20 108 20 112 C8.12 112 -3.76 112 -16 112 C-16.66 107.05 -17.32 102.1 -18 97 C-18.99 101.95 -19.98 106.9 -21 112 C-22.14476807 111.99476318 -23.28953613 111.98952637 -24.46899414 111.98413086 C-28.73868012 111.96595498 -33.00836271 111.95452216 -37.27807617 111.94506836 C-39.12183203 111.94005684 -40.96558396 111.93324585 -42.80932617 111.92456055 C-45.46794612 111.91235516 -48.12651327 111.90673975 -50.78515625 111.90234375 C-51.60210464 111.89718246 -52.41905304 111.89202118 -53.26075745 111.88670349 C-57.94115119 111.88625043 -62.36523417 112.26147203 -67 113 C-85.8643944 114.51853185 -85.8643944 114.51853185 -93.6015625 109.2890625 C-95 108 -95 108 -96 106 C-102.73398286 106.68782032 -108.60508504 109.61914847 -114.74414062 112.29296875 C-116.03288086 112.83244141 -116.03288086 112.83244141 -117.34765625 113.3828125 C-118.50793335 113.88385498 -118.50793335 113.88385498 -119.69165039 114.39501953 C-122.53669103 115.14065789 -124.22154401 114.9354702 -127 114 C-129.3125 110.9375 -129.3125 110.9375 -131 108 C-134.04193335 108.63096871 -135.60488744 109.36965344 -138.375 111.0625 C-144.77572406 114.33478028 -152.61809633 114.17174323 -159.46875 112.33984375 C-166.83379578 109.0680638 -171.0728106 102.7693272 -174.17089844 95.57104492 C-175.64487371 91.00024586 -175.59138398 86.51462639 -175.5 81.75 C-175.48718994 80.73583008 -175.47437988 79.72166016 -175.46118164 78.67675781 C-175.04763134 63.33735495 -169.57560327 50.49741818 -158.31640625 39.7890625 C-149.41767796 32.91618297 -140.95805039 30.82032164 -130.0625 30.8125 C-129.16853516 30.80025391 -128.27457031 30.78800781 -127.35351562 30.77539062 C-122.68432331 30.76499153 -119.30280428 31.0504108 -115 33 C-106.10614759 33.79265452 -96.88400439 32.67965061 -88 32 C-87.52820313 30.62714844 -87.52820313 30.62714844 -87.046875 29.2265625 C-86.61890625 28.03804688 -86.1909375 26.84953125 -85.75 25.625 C-85.33234375 24.44164062 -84.9146875 23.25828125 -84.484375 22.0390625 C-82.82332731 18.6382859 -82.36375216 18.332208 -79 17 C-77.1913441 16.51867383 -75.36722237 16.09361854 -73.53515625 15.7109375 C-71.96411133 15.38222656 -71.96411133 15.38222656 -70.36132812 15.046875 C-69.27271484 14.82515625 -68.18410156 14.6034375 -67.0625 14.375 C-65.97775391 14.14554688 -64.89300781 13.91609375 -63.77539062 13.6796875 C-59.10081979 12.71431823 -54.7908956 11.85747534 -50 12 C-51.22580645 27.4516129 -51.22580645 27.4516129 -54 33 C-49.71 33 -45.42 33 -41 33 C-40.9175 31.55625 -40.835 30.1125 -40.75 28.625 C-40.01567386 20.26245005 -37.92805207 12.15162479 -36 4 C-31.5163482 3.42716511 -27.0322983 2.85759377 -22.54785156 2.29101562 C-21.02299867 2.09789783 -19.4982575 1.90389564 -17.97363281 1.70898438 C-15.77958637 1.42864989 -13.58515508 1.1515197 -11.390625 0.875 C-10.7113092 0.78750488 -10.03199341 0.70000977 -9.33209229 0.60986328 C-6.17631041 0.21520443 -3.18989154 0 0 0 Z " fill="#050407" transform="translate(336,231)"/>
<path d="M0 0 C6.27 0 12.54 0 19 0 C22.23499041 13.97457567 24.84227988 27.98684972 27.25 42.125 C27.61678741 44.25918338 27.98397262 46.39329844 28.3515625 48.52734375 C29.23894701 53.68412237 30.12099889 58.84178606 31 64 C31.51296631 62.95956543 32.02593262 61.91913086 32.55444336 60.84716797 C36.36352156 53.15353285 40.23542828 45.54372971 44.5625 38.125 C45.05210205 37.27711914 45.5417041 36.42923828 46.04614258 35.55566406 C47.11065765 33.71282057 48.17704089 31.8710552 49.24511719 30.03027344 C51.19518088 26.66296813 53.13346776 23.28897864 55.0703125 19.9140625 C56.10309151 18.11637161 57.1361592 16.31884708 58.16940308 14.52142334 C58.84643383 13.34343326 59.52313234 12.16525216 60.19949341 10.98687744 C61.14571817 9.33928983 62.09428931 7.69305043 63.04296875 6.046875 C63.58977295 5.09651367 64.13657715 4.14615234 64.69995117 3.16699219 C66 1 66 1 67 0 C68.34267413 -0.08631874 69.68974322 -0.10706473 71.03515625 -0.09765625 C71.84404297 -0.09443359 72.65292969 -0.09121094 73.48632812 -0.08789062 C74.33646484 -0.07951172 75.18660156 -0.07113281 76.0625 -0.0625 C76.91650391 -0.05798828 77.77050781 -0.05347656 78.65039062 -0.04882812 C80.76695663 -0.03700373 82.88348685 -0.01906769 85 0 C85.16903541 7.15248948 84.67850928 14.0545535 83.79296875 21.1484375 C83.66772324 22.19203934 83.54247772 23.23564117 83.41343689 24.31086731 C83.00990887 27.66621891 82.59863506 31.02057292 82.1875 34.375 C81.63410082 38.96192624 81.08474481 43.5493346 80.53515625 48.13671875 C80.33330719 49.81448143 80.33330719 49.81448143 80.12738037 51.52613831 C78.62979673 64.00571376 77.30076593 76.49819416 76 89 C68.74 89 61.48 89 54 89 C54.61647544 82.83524557 55.26170172 76.92279025 56.41015625 70.875 C56.54191757 70.16142334 56.67367889 69.44784668 56.80943298 68.71264648 C57.22327656 66.47436274 57.64252186 64.23714003 58.0625 62 C58.48521123 59.73415231 58.90673638 57.46809678 59.32627869 55.20166016 C59.58577494 53.80121752 59.84722523 52.40113522 60.1108551 51.00146484 C60.77433711 47.52408352 60.77433711 47.52408352 61 44 C60.55684448 44.82685303 60.55684448 44.82685303 60.10473633 45.67041016 C54.1972236 56.66497921 48.16854043 67.56982122 41.8125 78.3125 C41.24829346 79.26656738 40.68408691 80.22063477 40.1027832 81.20361328 C36.14088282 87.85911718 36.14088282 87.85911718 35 89 C32.13732433 89.07325168 29.299281 89.09238205 26.4375 89.0625 C25.63119141 89.05798828 24.82488281 89.05347656 23.99414062 89.04882812 C21.99606244 89.03700518 19.99802217 89.01906914 18 89 C17.03919295 83.93214604 16.0789292 78.86418952 15.11914062 73.79614258 C14.79343888 72.07671414 14.46759587 70.35731245 14.14160156 68.63793945 C12.39605225 59.43096999 10.65162715 50.22440266 9 41 C8.84144531 42.20269531 8.68289062 43.40539062 8.51953125 44.64453125 C6.50207177 59.52459004 3.82760076 74.25452353 1 89 C-0.97969854 88.88372713 -2.95875213 88.7564632 -4.9375 88.625 C-6.03964844 88.55539062 -7.14179687 88.48578125 -8.27734375 88.4140625 C-12.61379204 87.93172932 -16.7638868 87.0231112 -21 86 C-14.37461839 57.23109539 -7.4765314 28.56002558 0 0 Z " fill="#FBFBFB" transform="translate(73,247)"/>
<path d="M0 0 C2 0.8125 2 0.8125 3.0859375 2.50390625 C4.16981406 5.24138937 4.41551268 7.62967752 4.625 10.5625 C4.69976562 11.54734375 4.77453125 12.5321875 4.8515625 13.546875 C4.92503906 14.66835937 4.92503906 14.66835937 5 15.8125 C5.27972656 15.30460937 5.55945313 14.79671875 5.84765625 14.2734375 C9.51405226 7.9780823 14.07410523 2.57783003 21 -0.1875 C26.59390643 -0.85752222 31.46352174 -0.94226125 36.5625 1.5625 C38.73252407 3.56559914 40.5186683 5.26131763 42 7.8125 C42 8.8025 42 9.7925 42 10.8125 C42.721875 10.07 43.44375 9.3275 44.1875 8.5625 C49.44746858 3.41941961 53.6932926 -0.45454704 61.25 -0.5625 C66.4769266 -0.45768195 70.89287187 0.43186859 75 3.8125 C78.22754097 7.91619478 78.575736 11.81333431 78.5625 16.875 C78.56443359 17.66084473 78.56636719 18.44668945 78.56835938 19.25634766 C78.38288489 26.37603881 76.44812732 32.47842601 74.14819336 39.16333008 C71.11471208 48.50265944 71.58120378 57.04058812 72 66.8125 C65.07 66.8125 58.14 66.8125 51 66.8125 C50.40700924 54.85385305 51.47068704 45.18514799 54.86572266 33.69506836 C56.38194737 28.52792229 57.35792669 24.2037707 57 18.8125 C55.27523089 17.85747842 55.27523089 17.85747842 53 17.8125 C41.98154396 25.72318639 39.85022242 43.57617447 37.68896484 56.06787109 C37.1033923 59.64579097 36.55546019 63.22978178 36 66.8125 C29.07 66.8125 22.14 66.8125 15 66.8125 C15.62189227 61.21546956 16.2491232 56.12364295 17.41015625 50.6875 C17.67763672 49.40359375 17.94511719 48.1196875 18.22070312 46.796875 C18.64072676 44.80194663 19.06353002 42.80770221 19.49145508 40.81445312 C21.08376209 33.36476375 22.393167 26.44161282 22 18.8125 C20.12515163 18.14683527 20.12515163 18.14683527 18 17.8125 C4.74681861 27.32760459 3.47334231 51.97244614 1 66.8125 C-5.93 66.8125 -12.86 66.8125 -20 66.8125 C-19.32763683 56.80365078 -17.30023512 47.31851335 -15.08398438 37.55078125 C-13.09128934 28.39306896 -11.3367 19.2194875 -14.5 10.125 C-14.7784375 9.29613281 -15.056875 8.46726562 -15.34375 7.61328125 C-15.5603125 7.01902344 -15.776875 6.42476563 -16 5.8125 C-15.15695313 5.46316406 -14.31390625 5.11382812 -13.4453125 4.75390625 C-12.34960938 4.29886719 -11.25390625 3.84382813 -10.125 3.375 C-9.03445312 2.92253906 -7.94390625 2.47007813 -6.8203125 2.00390625 C-1.69948013 -0.15932626 -1.69948013 -0.15932626 0 0 Z " fill="#FBFBFB" transform="translate(160,108.1875)"/>
<path d="M0 0 C4.39656173 -0.02465504 8.7930872 -0.04283842 13.18969727 -0.05493164 C14.68644918 -0.05997121 16.18319616 -0.06680287 17.67993164 -0.07543945 C19.82699807 -0.08752159 21.97399962 -0.09323191 24.12109375 -0.09765625 C26.06133423 -0.10551147 26.06133423 -0.10551147 28.04077148 -0.11352539 C31 0 31 0 32 1 C32.32102643 2.43100021 32.5882302 3.87415185 32.83203125 5.3203125 C32.98889404 6.23796387 33.14575684 7.15561523 33.30737305 8.10107422 C33.47406494 9.09896973 33.64075684 10.09686523 33.8125 11.125 C34.07317261 12.65084717 34.07317261 12.65084717 34.33911133 14.20751953 C35.08586545 18.57940108 35.8232215 22.95285639 36.56152344 27.32617188 C37.10031276 30.50966874 37.64378122 33.692342 38.1875 36.875 C38.35419189 37.87289551 38.52088379 38.87079102 38.69262695 39.89892578 C38.84948975 40.81657715 39.00635254 41.73422852 39.16796875 42.6796875 C39.30485107 43.49163574 39.4417334 44.30358398 39.58276367 45.14013672 C39.82695958 47.00535122 39.82695958 47.00535122 41 48 C41.5873291 46.93809448 41.5873291 46.93809448 42.18652344 45.85473633 C50.6814576 30.50508953 59.26084006 15.21261174 68 0 C78.23 0 88.46 0 99 0 C98.39500342 11.52835602 97.48071381 22.9526849 96.22265625 34.42578125 C96.04925406 36.03180679 95.8761185 37.63786114 95.70323181 39.24394226 C95.34361829 42.57608882 94.98114229 45.90790697 94.61645508 49.23950195 C94.15292808 53.47578535 93.69625533 57.71277433 93.24166203 61.9500246 C92.88647216 65.25428758 92.52787747 68.55817438 92.16827202 71.86195946 C91.99867769 73.4233158 91.83004491 74.98477694 91.66246223 76.54635048 C91.42689823 78.73612072 91.18677631 80.92534839 90.94555664 83.11450195 C90.81089493 84.35118118 90.67623322 85.58786041 90.53749084 86.86201477 C89.83606717 92.26207105 88.89522159 97.62867043 88 103 C75.79 103 63.58 103 51 103 C51.33 99.37 51.66 95.74 52 92 C50.02 95.63 48.04 99.26 46 103 C36.76 103 27.52 103 18 103 C17.01 99.04 16.02 95.08 15 91 C14.34 95.29 13.68 99.58 13 104 C8.94232352 103.61671822 4.8855609 103.22861965 0.82958984 102.828125 C-0.54936611 102.69343477 -1.9286009 102.56156732 -3.30810547 102.43261719 C-5.29466158 102.24642231 -7.28016673 102.04912054 -9.265625 101.8515625 C-10.45961914 101.73635254 -11.65361328 101.62114258 -12.88378906 101.50244141 C-17.13865115 100.8164099 -19.06954645 100.127058 -21.82788086 96.78588867 C-23.3822825 93.09139229 -22.79988027 91.26928432 -21.75390625 87.42578125 C-21.50586243 86.47788979 -21.50586243 86.47788979 -21.25280762 85.510849 C-20.70712604 83.43954581 -20.1345686 81.37665467 -19.5625 79.3125 C-18.98059548 77.12462035 -18.40590249 74.93491859 -17.8311615 72.74514771 C-17.44280624 71.26834341 -17.05205714 69.7921666 -16.65895081 68.31661987 C-14.97679993 61.99342953 -13.48966165 55.63548201 -12.0625 49.25 C-8.33182013 32.76322908 -4.14176916 16.3872403 0 0 Z M6 7 C4.11206157 14.3557552 2.22834943 21.71257672 0.34814453 29.0703125 C-0.28878383 31.56050104 -0.92676342 34.05042099 -1.56591797 36.54003906 C-8.82123618 64.64447568 -8.82123618 64.64447568 -15 93 C-12.64741656 93.50866669 -10.29338596 94.0070625 -7.9375 94.5 C-7.28072266 94.64308594 -6.62394531 94.78617187 -5.94726562 94.93359375 C-5.29306641 95.06894531 -4.63886719 95.20429688 -3.96484375 95.34375 C-3.3730835 95.46943359 -2.78132324 95.59511719 -2.17163086 95.72460938 C0.8898848 96.1128488 3.91817107 96.038867 7 96 C7.98251251 90.61129971 8.96096103 85.22188249 9.93579102 79.83178711 C10.26738038 78.00151064 10.60004362 76.17142837 10.93383789 74.34155273 C11.41581041 71.69826848 11.89380625 69.05428998 12.37109375 66.41015625 C12.51904892 65.60353043 12.66700409 64.7969046 12.81944275 63.96583557 C13.77269978 58.65659453 14.45370671 53.366804 15 48 C15.23710693 49.27641357 15.47421387 50.55282715 15.71850586 51.86791992 C16.59967224 56.6109852 17.48128744 61.35396696 18.36303711 66.09692383 C18.74434422 68.14833341 19.12553019 70.19976551 19.5065918 72.2512207 C20.05485573 75.20269631 20.60355761 78.15409021 21.15234375 81.10546875 C21.3221727 82.02023483 21.49200165 82.93500092 21.66697693 83.87748718 C22.41972151 87.92362246 23.17594465 91.9676225 24 96 C26.71378221 96.24478436 29.40546971 96.42160328 32.125 96.5625 C33.26582031 96.67561523 33.26582031 96.67561523 34.4296875 96.79101562 C36.87613548 96.88592093 38.67401128 96.78001684 41 96 C43.69223857 93.39769091 45.25693477 90.28684969 47 87 C47.58410645 85.98413818 48.16821289 84.96827637 48.77001953 83.92163086 C50.38440121 81.11014944 51.96769341 78.28430646 53.53173828 75.44458008 C54.49420348 73.69801881 55.46387958 71.9554376 56.43359375 70.21289062 C60.48157 62.89921574 64.32649065 55.5086326 68 48 C67.23106372 52.1878506 66.45968192 56.37524669 65.6875 60.5625 C65.4603833 61.79637451 65.2332666 63.03024902 64.99926758 64.30151367 C63.59088977 71.91816903 62.1176993 79.51097063 60.48046875 87.08203125 C59.83752913 90.49383653 59.83752913 90.49383653 60 96 C67.26 96 74.52 96 82 96 C82.20157715 94.13980225 82.4031543 92.27960449 82.61083984 90.36303711 C83.28385616 84.15635647 83.95858633 77.94986394 84.63443565 71.74349117 C85.04338188 67.98754466 85.45168002 64.23153026 85.85839844 60.4753418 C86.25231148 56.8376537 86.64805557 53.20016871 87.04497147 49.56280708 C87.1946752 48.18810403 87.34376351 46.81333379 87.49216843 45.43848991 C88.39895928 37.04247442 89.42037269 28.67709056 90.61099243 20.31739807 C91.1334555 15.86191159 91.1896286 11.47734193 91 7 C88.1558043 6.64447554 85.35584705 6.39116934 82.5 6.1875 C81.70851563 6.07857422 80.91703125 5.96964844 80.1015625 5.85742188 C77.28329372 5.70726821 75.59692005 5.85571502 73 7 C70.07640732 10.43370919 67.99532948 14.19639869 65.94140625 18.18301392 C64.49287829 20.9787837 62.91516931 23.70033753 61.359375 26.4375 C60.15347068 28.62346907 58.95040544 30.81100644 57.75 33 C56.45258111 35.35530667 55.15253546 37.70915484 53.8515625 40.0625 C53.52956879 40.64531738 53.20757507 41.22813477 52.87582397 41.82861328 C49.19441744 48.47808786 45.40726151 55.06677175 41.59277344 61.640625 C41.13161133 62.43984375 40.67044922 63.2390625 40.1953125 64.0625 C39.79328613 64.75472656 39.39125977 65.44695312 38.97705078 66.16015625 C37.86259915 68.13610101 37.86259915 68.13610101 37 71 C36.66790527 69.0511792 36.66790527 69.0511792 36.32910156 67.06298828 C35.49116667 62.15302905 34.64727557 57.24410782 33.80175781 52.33544922 C33.43950429 50.22764663 33.07877762 48.11958094 32.71972656 46.01123047 C30.48769108 32.91205014 27.99712419 19.9470365 25 7 C18.73 7 12.46 7 6 7 Z " fill="#050507" transform="translate(67,240)"/>
<path d="M0 0 C4.0925973 3.03622884 6.22966586 6.23571841 8 11 C8.11413059 16.44973563 6.98725893 21.42621998 5.75488281 26.71630859 C4.32180898 32.95008705 3.06514823 39.22096701 1.79202271 45.48901367 C1.32359951 47.75871827 0.83354543 50.02284053 0.33959961 52.28710938 C-2.17647066 64.09967749 -4.26957741 75.79574738 1.125 87.109375 C2 89 2 89 2 91 C-0.4566947 92.00419637 -2.91518353 93.00350501 -5.375 94 C-6.07367188 94.28617187 -6.77234375 94.57234375 -7.4921875 94.8671875 C-12.7734375 97 -12.7734375 97 -15 97 C-17.82897804 93.21615279 -18.57916416 89.82021143 -19.1875 85.1875 C-19.42533203 83.44533203 -19.42533203 83.44533203 -19.66796875 81.66796875 C-19.77753906 80.78753906 -19.88710938 79.90710938 -20 79 C-20.44730469 79.74765625 -20.89460938 80.4953125 -21.35546875 81.265625 C-21.96003906 82.25046875 -22.56460938 83.2353125 -23.1875 84.25 C-23.77917969 85.22453125 -24.37085938 86.1990625 -24.98046875 87.203125 C-28.46326757 92.02649823 -32.21062209 94.66398971 -38 96 C-44.55893792 96.79138922 -48.68041672 95.96361107 -54 92 C-61.03350676 83.63582979 -60.57865149 73.60981301 -59.79296875 63.27734375 C-58.33607372 52.40666542 -53.20833047 41.47828164 -44.5078125 34.62109375 C-36.01499168 29.13118621 -28.10298227 26.89325703 -18 28 C-17.01 28.33 -16.02 28.66 -15 29 C-15.04125 28.07058594 -15.0825 27.14117187 -15.125 26.18359375 C-15.125 21.03165159 -14.0178883 16.09348169 -13 11.0625 C-12.71382813 9.6074707 -12.71382813 9.6074707 -12.421875 8.12304688 C-11.95378085 5.74746905 -11.47969098 3.37325835 -11 1 C-7.08373093 -0.30542302 -3.98449842 -1.24164827 0 0 Z " fill="#FBFBFB" transform="translate(370,80)"/>
<path d="M0 0 C-0.47848216 2.87089297 -0.95950279 5.74102974 -1.453125 8.609375 C-1.78293792 10.65421509 -2.07580562 12.70618918 -2.296875 14.765625 C-3.53978671 25.12322256 -7.93653298 34.48374993 -12 44 C-11.40960938 43.07703125 -10.81921875 42.1540625 -10.2109375 41.203125 C-6.37075863 35.63961497 -1.80139912 31.30796137 5 30 C12.17747252 29.30294652 17.2000278 29.52918809 23 34 C27.45833312 39.9479409 26.78421989 46.89185764 26 54 C24.90606976 60.0445008 23.21988208 66.04771593 20.875 71.72265625 C19.57280259 76.60008314 19.79075499 81.35270153 19.875 86.375 C19.88402344 87.39722656 19.89304687 88.41945313 19.90234375 89.47265625 C19.92579437 91.9818724 19.96166164 94.49096716 20 97 C13.07 97 6.14 97 -1 97 C-1.53259705 84.66150168 -1.0146571 74.80373465 2.86572266 63.06958008 C4.48977979 58.13806255 5.33684486 54.20004245 5 49 C3.35 48.67 1.7 48.34 0 48 C-13.52140496 60.52130105 -15.05864367 79.80738179 -18 97 C-24.93 97 -31.86 97 -39 97 C-38.36767831 90.67678315 -37.68833791 84.7676876 -36.36328125 78.6171875 C-36.12331924 77.46941833 -36.12331924 77.46941833 -35.87850952 76.29846191 C-35.53710834 74.66653013 -35.19355785 73.03504667 -34.84799194 71.4039917 C-33.93112574 67.07386676 -33.03124526 62.74023181 -32.1328125 58.40625 C-31.86065163 57.09447281 -31.86065163 57.09447281 -31.58299255 55.75619507 C-29.57891904 46.04429812 -27.76340012 36.29905473 -25.99145508 26.54248047 C-24.54410686 18.63793618 -22.87717518 10.81381306 -21 3 C-18.9375 2.6875 -16.875 2.375 -14.8125 2.0625 C-11.61163942 1.57752112 -8.43214618 1.0893883 -5.26171875 0.43359375 C-3 0 -3 0 0 0 Z " fill="#FBFBFB" transform="translate(327,239)"/>
<path d="M0 0 C0.68578125 -0.00773437 1.3715625 -0.01546875 2.078125 -0.0234375 C6.46950854 -0.00667649 9.89080958 0.79904597 14 2.25 C16.11765328 2.52307938 18.24454111 2.73296941 20.375 2.875 C21.96441406 2.98714844 21.96441406 2.98714844 23.5859375 3.1015625 C24.78089844 3.17503906 24.78089844 3.17503906 26 3.25 C25.002029 8.78115018 23.99168352 14.30887496 22.9296875 19.828125 C18.46540322 40.08409707 18.46540322 40.08409707 23.125 59.61328125 C24 61.25 24 61.25 24 63.25 C18.39 65.23 12.78 67.21 7 69.25 C2.5 60.25 2.5 60.25 2.25 55.25 C2.19328125 54.30125 2.1365625 53.3525 2.078125 52.375 C2.05234375 51.67375 2.0265625 50.9725 2 50.25 C1.731875 50.81847656 1.46375 51.38695312 1.1875 51.97265625 C-2.34157726 58.9263315 -6.70041276 63.71434598 -13.4375 67.6875 C-19.09195781 68.92872245 -24.02753822 69.16886897 -29.25 66.375 C-34.02752702 62.90651538 -36.49903033 58.94117667 -38 53.25 C-39.76280944 38.97193211 -37.66350348 24.98436974 -29 13.25 C-24.76066582 8.06527439 -20.22652558 4.70569514 -14 2.25 C-13.09378906 1.89035156 -12.18757813 1.53070313 -11.25390625 1.16015625 C-7.45425295 0.09734806 -3.91007468 -0.04409859 0 0 Z " fill="#FBFBFB" transform="translate(206,268.75)"/>
<path d="M0 0 C3.31481132 2.05880859 4.56297167 3.58429722 6 7.2421875 C6.97656944 14.61840352 6.59937885 21.20550276 2 27.2421875 C-3.51119374 33.57476108 -10.20280287 36.48897031 -18 39.2421875 C-18.69738281 39.4896875 -19.39476562 39.7371875 -20.11328125 39.9921875 C-23.79938699 41.16912592 -27.14765073 41.43010698 -31 41.2421875 C-30.1395861 45.57448465 -30.1395861 45.57448465 -28 49.2421875 C-21.13516734 49.8048787 -16.03621579 48.5114771 -9.6015625 46.1171875 C-7 45.2421875 -7 45.2421875 -4 45.2421875 C-3.32739649 47.01077441 -2.66211605 48.78214766 -2 50.5546875 C-1.62875 51.54082031 -1.2575 52.52695313 -0.875 53.54296875 C0 56.2421875 0 56.2421875 0 59.2421875 C-2.89461219 60.2250932 -5.79058079 61.20362451 -8.6875 62.1796875 C-9.50412109 62.45748047 -10.32074219 62.73527344 -11.16210938 63.02148438 C-20.8417785 66.27416671 -30.83113846 68.62411984 -40.5 64.0546875 C-46.26871956 60.75036494 -49.28135687 56.95721092 -51.46484375 50.59765625 C-54.46687574 37.38433296 -50.83592835 23.56419384 -44 12.2421875 C-34.70141109 -1.94344387 -15.3186501 -7.30659297 0 0 Z " fill="#FBFBFB" transform="translate(299,110.7578125)"/>
<path d="M0 0 C21.78 0 43.56 0 66 0 C65.01 5.28 64.02 10.56 63 16 C55.74 16 48.48 16 41 16 C40.73960938 18.27519531 40.47921875 20.55039063 40.2109375 22.89453125 C39.11655968 31.91620485 37.41423547 40.78227577 35.625 49.6875 C35.31181715 51.26778456 34.99924137 52.84818955 34.68725586 54.42871094 C34.07490662 57.52953305 33.46037293 60.62990848 32.84423828 63.72998047 C31.72043782 69.39763079 30.63669875 75.07276332 29.5625 80.75 C28.7890625 84.83375 28.7890625 84.83375 28 89 C20.74 89 13.48 89 6 89 C6.57447993 79.57681421 8.36035176 70.54930169 10.26708984 61.32617188 C11.18610078 56.88003483 12.08637365 52.43010105 12.98828125 47.98046875 C13.1646109 47.11287933 13.34094055 46.24528992 13.52261353 45.35140991 C15.49984384 35.5931742 17.26965833 25.80526945 19 16 C12.73 16 6.46 16 0 16 C0 10.72 0 5.44 0 0 Z " fill="#FCFCFC" transform="translate(40,86)"/>
<path d="M0 0 C-0.31201674 2.04174058 -0.62463569 4.08338913 -0.9375 6.125 C-1.11152344 7.26195312 -1.28554688 8.39890625 -1.46484375 9.5703125 C-1.95581807 12.71684867 -2.47645322 15.8587193 -3 19 C1.29 19 5.58 19 10 19 C9.52312298 24.10939665 9.00753402 28.9623299 8 34 C3.38 34.33 -1.24 34.66 -6 35 C-6.84141157 39.18602254 -7.67338129 43.37355386 -8.5 47.5625 C-8.85771484 49.33463867 -8.85771484 49.33463867 -9.22265625 51.14257812 C-10.34048009 56.84347972 -11.34153388 62.18538563 -11 68 C-6.41464864 68.09170703 -2.58489331 67.76414889 2 67 C2 71.95 2 76.9 2 82 C-6.41928636 85.36771455 -18.36534033 87.20690148 -27.0625 83.6875 C-30.97759311 81.43840396 -32.56927602 80.29217193 -34 76 C-35.02886777 67.07935224 -32.55948307 58.47230515 -30.5 49.875 C-30.16175356 48.42731821 -29.82450621 46.97940261 -29.48828125 45.53125 C-28.67034688 42.01806478 -27.83896615 38.50823002 -27 35 C-30.3 35 -33.6 35 -37 35 C-37 29.72 -37 24.44 -37 19 C-32.38 19 -27.76 19 -23 19 C-22.731875 17.659375 -22.46375 16.31875 -22.1875 14.9375 C-21.32765964 10.6382982 -20.185923 6.82198495 -18 3 C-15.23801164 1.93315089 -13.35115569 1.41821561 -10.5 1.0625 C-9.48486328 0.89524414 -9.48486328 0.89524414 -8.44921875 0.72460938 C-5.60676011 0.27329198 -2.87995153 0 0 0 Z " fill="#FBFBFB" transform="translate(277,252)"/>
<path d="M0 0 C6.6 0 13.2 0 20 0 C19.40545628 8.73236087 17.87362846 17.02069853 16 25.5625 C14.22109562 33.69763109 12.56108517 41.67925198 12 50 C15.465 49.505 15.465 49.505 19 49 C19 53.62 19 58.24 19 63 C12.25851117 65.65238905 6.26288137 67.01342531 -1 66 C-5.42977671 63.8642148 -8.19613671 61.60987286 -10 57 C-11.32692646 47.30474862 -8.19950045 37.33171718 -6.125 27.9375 C-5.75557726 26.2287171 -5.38708074 24.51973368 -5.01953125 22.81054688 C-3.37789684 15.19997244 -1.68894462 7.60025078 0 0 Z " fill="#FBFBFB" transform="translate(110,110)"/>
<path d="M0 0 C2.91927604 1.3961755 4.72202996 2.72202996 7 5 C7.69356035 9.05915319 7.93346201 13.26147038 5.94921875 16.95703125 C3.44410213 19.99420803 1.50967927 21.82982681 -2.42578125 22.2734375 C-10.10563235 22.54363524 -10.10563235 22.54363524 -14.1875 20.0625 C-16.64127599 15.91646471 -16.77833069 12.70419649 -16 8 C-13.03435546 0.82001849 -7.28470853 -1.12072439 0 0 Z " fill="#FAFAFA" transform="translate(128,79)"/>
<path d="M0 0 C1.71697229 4.10809322 0.14973174 7.63519606 -1.1875 11.625 C-1.41945068 12.3370459 -1.65140137 13.0490918 -1.89038086 13.78271484 C-7.44735438 30.61960063 -7.44735438 30.61960063 -12 36 C-14.75 36.875 -14.75 36.875 -17 37 C-20.02425073 32.46362391 -19.53539459 28.32129985 -19 23 C-17.12144181 14.5658547 -14.76968575 7.76968575 -8.625 1.625 C-5.50153901 -0.30857109 -3.60914402 -0.33573433 0 0 Z " fill="#090909" transform="translate(208,284)"/>
<path d="M0 0 C0.97715769 3.73687283 0.98349232 6.07021288 -0.22265625 9.73046875 C-0.51092285 10.61186523 -0.79918945 11.49326172 -1.09619141 12.40136719 C-1.41507324 13.32079102 -1.73395508 14.24021484 -2.0625 15.1875 C-2.38395996 16.12625977 -2.70541992 17.06501953 -3.03662109 18.03222656 C-7.95764562 31.97795896 -7.95764562 31.97795896 -12 36 C-14.6171875 36.796875 -14.6171875 36.796875 -17 37 C-19.24246852 34.75753148 -18.24953472 30.10104795 -18.25097656 27.07641602 C-18.11976674 18.670041 -16.59522913 10.55441127 -11 4 C-7.27008036 0.98432029 -4.84609195 -0.57012846 0 0 Z " fill="#060606" transform="translate(350,123)"/>
<path d="M0 0 C3.96 0 7.92 0 12 0 C11.31640625 8.203125 11.31640625 8.203125 11 11 C10.95875 11.7321875 10.9175 12.464375 10.875 13.21875 C10 15 10 15 7.05859375 16.265625 C5.86363281 16.59046875 4.66867187 16.9153125 3.4375 17.25 C2.23996094 17.58515625 1.04242188 17.9203125 -0.19140625 18.265625 C-1.58166016 18.62914062 -1.58166016 18.62914062 -3 19 C-2.37574057 12.54931918 -1.33978367 6.3416427 0 0 Z " fill="#2911BF" transform="translate(276,294)"/>
<path d="M0 0 C2.85915079 2.73483988 3.9387999 4.05610614 4.203125 8.1328125 C4.32031916 18.11384813 3.17443142 27.2668308 1 37 C0.67 37 0.34 37 0 37 C0 35.35 0 33.7 0 32 C-2.97 32.495 -2.97 32.495 -6 33 C-4.26151105 21.95144522 -2.12014378 10.98030797 0 0 Z " fill="#2710B6" transform="translate(136,117)"/>
<path d="M0 0 C1.98 0 3.96 0 6 0 C5.29776886 7.08883852 4.18931498 14.05145146 2.9375 21.0625 C2.75123047 22.11888672 2.56496094 23.17527344 2.37304688 24.26367188 C1.91788796 26.8429057 1.46015627 29.4216539 1 32 C-3.44325106 26.2815091 -3.55147463 21.09564029 -3 14 C-2.16011025 9.29271094 -1.12487171 4.64679146 0 0 Z " fill="#2710B7" transform="translate(235,294)"/>
<path d="M0 0 C2.6875 0.5 2.6875 0.5 3.6875 1.5 C4.1875 3.6875 4.1875 3.6875 3.6875 6.5 C0.72388785 10.16714025 -2.52446421 12.69992346 -7.25 13.375 C-8.7659375 13.436875 -8.7659375 13.436875 -10.3125 13.5 C-10.06369056 8.39940638 -8.35281415 5.51975272 -5.0078125 1.8515625 C-3.3125 0.5 -3.3125 0.5 0 0 Z " fill="#070707" transform="translate(281.3125,123.5)"/>
<path d="M0 0 C0.66 0 1.32 0 2 0 C2 3.3 2 6.6 2 10 C-0.13262124 6.80106814 -0.59021548 4.77001757 -1 1 C-0.67 0.67 -0.34 0.34 0 0 Z " fill="#230FA3" transform="translate(301,147)"/>
</svg>
